<svg width="26" height="26" viewBox="0 0 26 26" fill="none" xmlns="http://www.w3.org/2000/svg">
<path d="M12.6075 16.4831C10.3006 14.4715 8.30041 12.2753 7.13807 9.44415C6.71379 8.41172 6.45707 7.33671 6.50343 6.21204C6.61039 3.70015 7.80838 1.86235 10.0796 0.794439C13.7805 -0.947565 18.2159 1.54304 18.6759 5.58406C18.8541 7.16996 18.4762 8.66007 17.8023 10.0863C16.7933 12.215 15.2994 13.9854 13.5987 15.5926C13.2813 15.8871 12.9498 16.1709 12.6075 16.4831ZM12.6039 8.29464C13.7056 8.29464 14.5827 7.42186 14.5863 6.32557C14.5899 5.22573 13.7163 4.35295 12.6146 4.34941C11.4986 4.34586 10.618 5.21863 10.6215 6.32912C10.6215 7.42186 11.5022 8.29464 12.6039 8.29464Z" fill="#016938"/>
<path d="M7.38338 25.1468C6.73447 24.8594 6.12121 24.5863 5.50796 24.3131C3.79654 23.5503 2.09226 22.7804 0.377281 22.0282C0.0956109 21.9041 -0.000656104 21.7267 -0.000656104 21.4358C0.00290934 18.5584 0.00290934 15.6847 0.00290934 12.8073C0.00290934 9.85905 0.0136057 6.91432 -0.007787 3.96604C-0.0113524 3.3629 0.359454 3.28839 0.758784 3.46933C2.08156 4.07602 3.41148 4.66497 4.74495 5.24682C4.91609 5.32132 4.94818 5.40292 4.93392 5.58386C4.77348 7.25491 5.09793 8.85145 5.80389 10.3558C6.22818 11.264 6.77726 12.119 7.26216 13.0025C7.32633 13.1195 7.39408 13.2615 7.39408 13.3892C7.40121 17.2386 7.40121 21.0881 7.39764 24.9375C7.39408 24.9907 7.39051 25.0439 7.38338 25.1468Z" fill="#016938"/>
<path d="M20.1589 4.73242C20.954 5.08366 21.6991 5.41361 22.4443 5.74711C23.2323 6.09835 24.0131 6.46023 24.8046 6.79373C25.1077 6.92146 25.2147 7.11304 25.2075 7.42526C25.1933 8.13483 25.204 8.84086 25.204 9.55043C25.204 14.6594 25.204 19.7647 25.204 24.8737C25.204 25.4413 24.9686 25.5939 24.4481 25.3597C22.3088 24.4054 20.1696 23.451 18.0267 22.5002C17.8663 22.4292 17.8057 22.3476 17.8057 22.1667C17.8128 19.2539 17.8092 16.3411 17.8164 13.4283C17.8164 13.2828 17.8805 13.116 17.9625 12.9954C19.0037 11.4521 19.7987 9.80588 20.1517 7.96808C20.3407 6.98532 20.3764 5.99901 20.1981 5.0127C20.1838 4.9382 20.1767 4.86015 20.1589 4.73242Z" fill="#016938"/>
<path d="M16.2078 15.2943C16.2078 15.3724 16.2078 15.4504 16.2078 15.5285C16.2042 17.7033 16.1971 19.8817 16.2042 22.0566C16.2042 22.2943 16.1186 22.3901 15.9083 22.4717C13.662 23.3515 11.4194 24.242 9.17671 25.129C9.13036 25.1468 9.08044 25.1609 9.0127 25.1858C9.0127 21.8685 9.0127 18.5761 9.0127 15.2375C9.32289 15.5604 9.5903 15.8691 9.88623 16.1423C10.6064 16.7986 11.3374 17.4443 12.0754 18.0794C12.432 18.3845 12.7635 18.3632 13.1379 18.0758C14.1648 17.2918 15.0882 16.3977 15.9689 15.4611C16.0295 15.3972 16.083 15.3298 16.1436 15.2624C16.165 15.273 16.1864 15.2837 16.2078 15.2943Z" fill="#016938"/>
</svg>
