<svg width="20" height="26" viewBox="0 0 20 26" fill="none" xmlns="http://www.w3.org/2000/svg">
<path d="M17.0705 0.106689C17.315 0.191479 17.5793 0.243658 17.8106 0.361059C18.6167 0.778487 19.033 1.45028 19.0859 2.33732C19.0925 2.40906 19.0925 2.48081 19.0925 2.55908C19.0925 9.42707 19.0925 16.2951 19.0925 23.163C19.0925 24.2001 18.4978 24.9241 17.5 25.0806C16.8723 25.1784 16.3304 24.9828 15.8811 24.5393C14.956 23.6327 14.0375 22.7195 13.1191 21.8129C12.2534 20.9585 11.3812 20.0976 10.509 19.2431C9.94733 18.6887 9.26013 18.6887 8.69847 19.2431C6.91438 21.0042 5.13029 22.7652 3.34619 24.5197C2.57309 25.2828 1.41673 25.2958 0.663449 24.5719C0.266984 24.2001 0.108398 23.737 0.108398 23.2087C0.108398 21.8195 0.108398 20.4237 0.108398 19.0344C0.108398 13.5361 0.108398 8.03129 0.108398 2.53299C0.108398 1.4242 0.716311 0.550206 1.70747 0.230613C1.84624 0.184957 1.99161 0.152346 2.13037 0.106689C7.11261 0.106689 12.0882 0.106689 17.0705 0.106689ZM1.59514 12.7991C1.59514 16.2168 1.59514 19.6345 1.59514 23.0522C1.59514 23.1304 1.58853 23.2152 1.59514 23.2935C1.62157 23.5805 1.89249 23.7305 2.15019 23.587C2.2427 23.5348 2.32199 23.4565 2.39468 23.3848C4.15895 21.6499 5.91661 19.9084 7.68088 18.1735C8.76455 17.1038 10.4231 17.0973 11.5134 18.167C12.5772 19.2105 13.6345 20.2606 14.6983 21.3042C15.4186 22.0151 16.1454 22.7326 16.8656 23.4435C17.0242 23.6 17.1894 23.6979 17.4141 23.587C17.6255 23.4826 17.6057 23.287 17.6057 23.0978C17.6057 16.2559 17.6057 9.41402 17.6057 2.57212C17.6057 1.87423 17.2885 1.56769 16.5749 1.56769C11.9231 1.56769 7.2778 1.56769 2.62595 1.56769C1.8991 1.56769 1.58853 1.87423 1.58853 2.59169C1.59514 5.99633 1.59514 9.40098 1.59514 12.7991Z" fill="#016938"/>
</svg>
