<svg width="25" height="19" viewBox="0 0 25 19" fill="none" xmlns="http://www.w3.org/2000/svg">
<path d="M0.277166 5.65698C0.521525 5.82543 0.71474 5.9638 0.913637 6.10217C3.96528 8.26193 7.02262 10.4157 10.0743 12.5754C11.5006 13.5801 13.0179 13.5861 14.4557 12.5754C17.6267 10.3375 20.792 8.0995 23.963 5.85551C24.0425 5.80137 24.1278 5.74722 24.2357 5.66902C24.2414 5.7773 24.2471 5.86153 24.2471 5.93974C24.2471 9.32677 24.2471 12.7078 24.2471 16.0948C24.2471 17.4123 23.4515 18.2907 22.207 18.3388C22.1388 18.3388 22.0763 18.3388 22.0081 18.3388C15.507 18.3388 9.0059 18.3388 2.51049 18.3388C1.98768 18.3388 1.49328 18.2546 1.07275 17.9057C0.521525 17.4484 0.271484 16.8528 0.271484 16.1129C0.277167 12.7138 0.271484 9.30872 0.271484 5.90364C0.277167 5.8495 0.277166 5.78332 0.277166 5.65698Z" fill="black"/>
<path d="M12.2789 0.338745C15.5749 0.338745 18.8653 0.338745 22.1613 0.338745C23.2239 0.338745 24.0423 1.01856 24.2071 2.09543C24.2752 2.52257 24.2468 2.96174 24.2355 3.3949C24.2355 3.47311 24.1218 3.56936 24.0423 3.62952C20.7576 5.95172 17.473 8.26789 14.1883 10.5901C13.9383 10.7706 13.6826 10.945 13.4268 11.1255C12.6483 11.667 11.8584 11.667 11.0799 11.1135C7.93729 8.89356 4.79472 6.67966 1.65214 4.45974C1.24299 4.17097 0.828141 3.88821 0.424665 3.58741C0.350789 3.52725 0.282595 3.3949 0.282595 3.29864C0.282595 2.86548 0.259866 2.4203 0.333742 1.99917C0.492859 1.0727 1.24298 0.410938 2.1295 0.350778C2.25452 0.344762 2.37385 0.338745 2.49888 0.338745C5.76079 0.338745 9.0227 0.338745 12.2789 0.338745Z" fill="black"/>
</svg>
