<svg width="24" height="18" viewBox="0 0 24 18" fill="none" xmlns="http://www.w3.org/2000/svg">
<g opacity="0.5">
<path d="M0.00568138 5.31836C0.250041 5.48681 0.443255 5.62518 0.642152 5.76355C3.6938 7.92331 6.75113 10.0771 9.80278 12.2368C11.2292 13.2415 12.7465 13.2475 14.1842 12.2368C17.3552 9.99884 20.5205 7.76087 23.6915 5.51689C23.771 5.46275 23.8563 5.4086 23.9642 5.33039C23.9699 5.43868 23.9756 5.52291 23.9756 5.60111C23.9756 8.98815 23.9756 12.3692 23.9756 15.7562C23.9756 17.0737 23.18 17.9521 21.9355 18.0002C21.8673 18.0002 21.8048 18.0002 21.7366 18.0002C15.2355 18.0002 8.73442 18.0002 2.23901 18.0002C1.71619 18.0002 1.22179 17.916 0.801269 17.567C0.250041 17.1098 0 16.5142 0 15.7742C0.00568277 12.3752 0 8.9701 0 5.56502C0.00568277 5.51087 0.00568138 5.4447 0.00568138 5.31836Z" fill="white"/>
<path d="M12.0074 0C15.3034 0 18.5938 0 21.8898 0C22.9525 0 23.7708 0.679814 23.9356 1.75669C24.0038 2.18383 23.9754 2.623 23.964 3.05615C23.964 3.13436 23.8503 3.23062 23.7708 3.29078C20.4861 5.61297 17.2015 7.92915 13.9168 10.2513C13.6668 10.4318 13.4111 10.6063 13.1554 10.7868C12.3768 11.3282 11.5869 11.3282 10.8084 10.7747C7.6658 8.55482 4.52323 6.34091 1.38066 4.12099C0.971501 3.83222 0.556657 3.54947 0.15318 3.24866C0.0793041 3.1885 0.0111109 3.05615 0.0111109 2.95989C0.0111109 2.52674 -0.0116188 2.08155 0.0622572 1.66043C0.221375 0.733958 0.971499 0.0721933 1.85801 0.0120328C1.98303 0.00601678 2.10237 0 2.22739 0C5.4893 0 8.75121 0 12.0074 0Z" fill="white"/>
</g>
</svg>
