<svg width="29" height="29" viewBox="0 0 29 29" fill="none" xmlns="http://www.w3.org/2000/svg">
<circle cx="14.4346" cy="14.4346" r="14.4346" fill="#016938"/>
<path d="M11.273 8.05273C11.7085 8.19428 11.992 8.52456 12.2287 8.89023C12.5035 9.31193 12.7666 9.74543 13.0092 10.1878C13.1875 10.5151 13.281 10.8719 13.205 11.2553C13.1582 11.4941 13.0442 11.7035 12.8659 11.8657C12.6233 12.0869 12.3778 12.3169 12.1089 12.5056C11.5828 12.8743 11.5097 13.3225 11.7055 13.9034C11.8868 14.4372 12.2054 14.8913 12.5473 15.3307C12.9945 15.9028 13.471 16.4454 14.0322 16.9084C14.342 17.165 14.6694 17.392 15.0698 17.4864C15.4206 17.569 15.7187 17.4775 15.9759 17.2298C16.2331 16.9851 16.4874 16.7344 16.7563 16.5044C17.1977 16.1299 17.6829 16.1181 18.1827 16.3746C18.3464 16.4602 18.5101 16.5516 18.6562 16.6666C19.1706 17.0794 19.7026 17.4775 20.1001 18.0172C20.4275 18.4654 20.4012 18.896 19.9949 19.2705C19.612 19.6214 19.2496 19.9989 18.7965 20.2643C18.0015 20.7302 17.1509 20.8924 16.2448 20.7804C15.2744 20.6595 14.418 20.2525 13.6171 19.7069C12.562 18.9845 11.6763 18.0791 10.8667 17.0942C10.1447 16.2183 9.51045 15.2894 9.06032 14.2396C8.74757 13.5083 8.54297 12.7533 8.54297 11.9571C8.54297 10.6508 9.01356 9.55669 10.0395 8.72804C10.1915 8.60714 10.323 8.45969 10.4809 8.35058C10.6445 8.23557 10.8258 8.15005 11.0011 8.05273C11.0917 8.05273 11.1823 8.05273 11.273 8.05273Z" fill="white"/>
</svg>
