<svg width="26" height="22" viewBox="0 0 26 22" fill="none" xmlns="http://www.w3.org/2000/svg">
<rect x="0.162109" y="0.852051" width="25.2152" height="20.3403" fill="#016938"/>
<path d="M17.6253 16.5222C16.3124 16.5222 15.0328 16.2293 13.7863 15.6434C12.5399 15.0576 11.4357 14.2835 10.4738 13.3211C9.51186 12.3588 8.73842 11.2537 8.15345 10.0058C7.56848 8.75788 7.2758 7.47716 7.27539 6.16365C7.27539 5.98032 7.33645 5.82753 7.45857 5.70531C7.5807 5.58309 7.73335 5.52197 7.91653 5.52197H10.3895C10.532 5.52197 10.6592 5.56781 10.7711 5.65948C10.8831 5.75114 10.9492 5.86828 10.9696 6.01087L11.3665 8.14981C11.3868 8.2924 11.3842 8.42237 11.3586 8.53971C11.3329 8.65704 11.2745 8.76134 11.1833 8.8526L9.71784 10.3499C10.1453 11.0832 10.6796 11.7707 11.3207 12.4124C11.9618 13.0541 12.6691 13.6092 13.4426 14.0777L14.8775 12.6416C14.9691 12.5499 15.0888 12.4813 15.2365 12.4356C15.3843 12.39 15.5292 12.3772 15.6713 12.3971L17.7779 12.8249C17.9204 12.8555 18.0374 12.9243 18.129 13.0315C18.2206 13.1386 18.2664 13.2633 18.2664 13.4055V15.8805C18.2664 16.0639 18.2053 16.2167 18.0832 16.3389C17.9611 16.4611 17.8084 16.5222 17.6253 16.5222Z" fill="white"/>
</svg>
