<svg width="20" height="22" viewBox="0 0 20 22" fill="none" xmlns="http://www.w3.org/2000/svg">
<g opacity="0.5">
<path d="M15.4854 5.77529C15.479 8.96139 12.8227 11.5505 9.56193 11.5442C6.30755 11.5379 3.64487 8.92368 3.66417 5.75644C3.68346 2.56406 6.34614 -0.0187501 9.60052 0.000102555C12.8549 0.0189552 15.4918 2.60805 15.4854 5.77529ZM9.56836 1.50831C7.16295 1.50831 5.20131 3.43128 5.20775 5.77529C5.21418 8.1193 7.18224 10.036 9.58122 10.036C11.9802 10.036 13.9483 8.10674 13.9418 5.76272C13.9418 3.41243 11.9738 1.50203 9.56836 1.50831Z" fill="white"/>
<path d="M9.31293 13.04C12.0464 13.0777 14.3103 13.7313 16.2526 15.2584C17.764 16.4461 18.7674 17.9417 19.0825 19.8396C19.134 20.1538 19.1468 20.4805 19.1597 20.801C19.1725 21.2347 18.851 21.5677 18.4329 21.5803C18.0084 21.5929 17.6676 21.2975 17.629 20.8702C17.5968 20.556 17.5968 20.2417 17.5389 19.9338C17.2302 18.3188 16.2912 17.0996 14.947 16.1696C13.1462 14.919 11.1202 14.454 8.9399 14.5797C7.22267 14.6802 5.63407 15.1704 4.22555 16.1507C2.87492 17.0871 1.92947 18.3062 1.61433 19.9275C1.55644 20.2229 1.55644 20.5371 1.53072 20.8387C1.49856 21.1907 1.27988 21.4672 0.964737 21.5551C0.64959 21.6431 0.289421 21.5237 0.128632 21.2409C0.0450211 21.1027 0 20.9142 0 20.7508C0.0257263 18.7901 0.848969 17.1688 2.25105 15.8239C3.80106 14.3346 5.69195 13.5051 7.82724 13.1909C8.40608 13.1029 8.99135 13.0715 9.31293 13.04Z" fill="white"/>
</g>
</svg>
