<svg width="20" height="23" viewBox="0 0 20 23" fill="none" xmlns="http://www.w3.org/2000/svg">
<path d="M15.7051 6.32363C15.6987 9.50973 13.0425 12.0988 9.78165 12.0925C6.52727 12.0863 3.8646 9.47202 3.88389 6.30478C3.90319 3.1124 6.56586 0.52959 9.82024 0.548442C13.0746 0.567295 15.7116 3.15639 15.7051 6.32363ZM9.78809 2.05665C7.38267 2.05665 5.42104 3.97962 5.42747 6.32363C5.4339 8.66764 7.40197 10.5843 9.80095 10.5843C12.1999 10.5843 14.168 8.65508 14.1616 6.31106C14.1616 3.96077 12.1935 2.05037 9.78809 2.05665Z" fill="black"/>
<path d="M9.53168 13.5883C12.2651 13.626 14.529 14.2795 16.4714 15.8066C17.9828 16.9943 18.9861 18.4899 19.3013 20.3878C19.3527 20.702 19.3656 21.0288 19.3784 21.3493C19.3913 21.7829 19.0697 22.1159 18.6517 22.1285C18.2272 22.1411 17.8863 21.8457 17.8477 21.4184C17.8156 21.1042 17.8156 20.79 17.7577 20.482C17.449 18.867 16.5099 17.6479 15.1657 16.7178C13.3649 15.4672 11.339 15.0022 9.15865 15.1279C7.44142 15.2284 5.85282 15.7186 4.4443 16.6989C3.09367 17.6353 2.14822 18.8544 1.83308 20.4758C1.77519 20.7711 1.77519 21.0853 1.74947 21.387C1.71731 21.7389 1.49863 22.0154 1.18349 22.1034C0.86834 22.1913 0.508171 22.0719 0.347382 21.7892C0.263771 21.6509 0.21875 21.4624 0.21875 21.299C0.244476 19.3383 1.06772 17.717 2.4698 16.3722C4.01981 14.8828 5.9107 14.0533 8.04599 13.7391C8.62483 13.6511 9.2101 13.6197 9.53168 13.5883Z" fill="black"/>
</svg>
