<?xml version="1.0" encoding="utf-8"?>
<!-- Generator: Adobe Illustrator 24.0.1, SVG Export Plug-In . SVG Version: 6.00 Build 0)  -->
<svg version="1.1" id="Layer_1" xmlns="http://www.w3.org/2000/svg" xmlns:xlink="http://www.w3.org/1999/xlink" x="0px" y="0px"
	 viewBox="0 0 512 512" style="enable-background:new 0 0 512 512;" xml:space="preserve">
<style type="text/css">
	.st0{fill:#016938;}
	.st1{fill:#FFFFFF;}
</style>
<path class="st0" d="M461.4,512H50.6C22.7,512,0,489.3,0,461.4V50.6C0,22.7,22.7,0,50.6,0h410.8c28,0,50.6,22.7,50.6,50.6v410.8
	C512,489.3,489.3,512,461.4,512z"/>
<path class="st1" d="M101.3,323.5c-17,0-28.3-7.1-34.6-21.7c-0.8-3.4-1.3-6.8-1.3-9.7V290c0-8.6,4.2-18.8,12-30.1l1.3,3.7
	c-3.7,7.1-5.5,12.6-6,16.8c0,12.6,6.8,20.7,20.2,24.6c3.9,0.8,7.1,1.3,9.7,1.3h2.6c12,0,23-4.2,32.7-12.6c2.1-2.1,3.1-3.9,3.1-6
	c0-2.6-1.6-7.9-16-24.6c3.9-5.2,7.9-10.2,12.3-14.9c2.6,4.7,5.2,9.4,7.3,13.6c2.9,5.8,6.3,8.6,10.5,8.6h24.4
	c22.5,0,41.9,0.3,58.1,0.5c0,0,0,0,0.3,0c10,0,16.8,10.2,13.9,19.6c-0.5,1.3-1.1,2.6-1.6,3.9c-0.8-1.8-2.4-3.1-4.2-4.5
	c-2.1-1.6-7.6-3.4-29.1-4.2c-5-0.3-10.7-0.3-17-0.3c-13.6,0-30.4,0.3-49.7,1h-1.6l-0.3,1.6c-1.3,7.3-5,14.7-11.3,21.5
	C126.9,318.8,114.9,323.5,101.3,323.5z"/>
<path class="st1" d="M260.5,297.8c7.3-8.1,11-19.4,11-33.8c0-17-1.3-41.4-4.2-72.8l13.6-13.4c0.3,0,0.5,0.3,0.8,0.3
	c1.6,19.9,2.6,39,2.6,56.3v28c0,6.8-1.6,15.7-8.4,22.5C268.3,291.8,263.3,295.7,260.5,297.8z"/>
<path class="st1" d="M370.2,299.7l-9.2,10.5c6.5,3.7,11.5,7.1,15.4,9.7c3.7-2.9,6.5-6.3,8.9-9.9
	C380.6,305.9,375.4,302.5,370.2,299.7z"/>
<path class="st1" d="M440.1,235l-9.2,10.5c2.9,1.6,8.1,4.7,15.2,9.4c4.5-3.4,7.6-6.8,9.2-9.4C449.2,240.5,444.3,236.8,440.1,235z"/>
<path class="st1" d="M460.5,288.1c0,2.9-0.3,5.5-1,7.9c-1-2.6-2.6-4.5-5.2-5.8c-3.7-1.8-8.4-2.6-14.1-2.6h-37.7
	c-9.7,0-16.5-2.4-20.2-6.5c-2.6-2.9-5.2-9.4-8.4-19.6l-1.3-4.7l-0.5-2.4l-2.6,3.1c-4.4,4.5-8.4,7.3-13.9,8.4l-1.8,0.3l0.3,1.8
	c0.5,2.9,0.8,6,0.8,9.9c0,7.6-2.4,14.7-6.8,20.9c-7.6,10.7-16,16.2-24.9,16.2c-8.1,0-18.8-3.1-31.9-9.4l1.3-2.4
	c3.9,1,7.6,1.6,10.7,1.6c11.3,0,22-4.2,31.7-12.3c7.9-6.5,12.6-11.8,13.9-16.2v-0.3v-0.3c0-2.4-2.1-6.3-17.3-17
	c2.1-6.3,4.2-11.5,6-15.7l1.3,0.8l2.1,1.3c1.8,1.3,3.4,2.4,4.7,2.9c3.7,2.1,7.3,3.1,11,3.1c6,0,11-2.4,15.2-6.8
	c0.8-0.8,1.6-1.8,2.1-2.9l1.8-2.9c1.3-1.8,2.1-3.1,2.9-3.9h0.5c0.5,1,0.8,2.6,1.3,4.7l0.3,1.8l0.5,1.8l0.8,3.7
	c1.6,6.8,3.4,11.8,5.2,15.2c3.4,5.5,8.4,8.4,15.4,8.4h44.2c5.8,0,10.7,1.8,12,4.7C459.7,279,460.5,283.2,460.5,288.1z"/>
</svg>
