<svg width="48" height="52" viewBox="0 0 48 52" fill="none" xmlns="http://www.w3.org/2000/svg">
<path d="M36.9437 10.8303C36.8186 11.1778 36.7074 11.7894 36.4155 12.3037C35.9151 13.1793 35.8873 13.9716 36.4155 14.8473C37.5135 16.682 36.7213 19.1422 34.7476 19.9622C33.8441 20.3375 33.3159 20.963 33.302 21.9221C33.2742 23.8124 31.0781 25.7444 28.8403 25.1189C27.9785 24.8826 27.2558 25.1467 26.6442 25.8278C25.1014 27.5652 22.6829 27.5652 21.14 25.8417C20.5285 25.1467 19.7918 24.9243 18.9022 25.1189C16.7339 25.6054 14.7185 24.1877 14.51 21.9915C14.4127 20.9908 13.9401 20.3375 13.0089 19.9344C11.063 19.1005 10.2707 16.6681 11.3549 14.8612C11.883 13.9994 11.883 13.1932 11.3549 12.3176C10.2568 10.4967 11.0352 8.06434 12.9811 7.24428C13.9401 6.84119 14.3988 6.16012 14.4961 5.14547C14.6907 3.06055 16.7339 1.55942 18.7771 2.032C19.7779 2.26829 20.5563 2.0181 21.2373 1.22583C22.6134 -0.3726 25.1709 -0.3587 26.5608 1.25363C27.2002 2.0042 27.9507 2.26829 28.9237 2.0459C31.0503 1.55942 33.0657 3.01886 33.2742 5.17326C33.3715 6.14622 33.7885 6.82729 34.7198 7.20258C36.207 7.82805 36.8047 9.0512 36.9437 10.8303ZM23.8782 21.1576C28.0619 21.1576 31.4673 17.7661 31.4673 13.5824C31.4673 9.41258 28.0758 6.02113 23.9199 6.00723C19.7223 5.99333 16.3169 9.38479 16.303 13.5685C16.303 17.7522 19.6945 21.1576 23.8782 21.1576Z" fill="#016938"/>
<path d="M23.864 51.5838C20.7227 51.5838 17.5954 51.5838 14.4541 51.5838C13.5784 51.5838 13.3421 51.3059 13.4533 50.4441C14.1622 44.8565 18.6934 40.9369 24.281 41.062C29.4516 41.1732 34.0245 45.5376 34.3719 50.6943C34.4136 51.2781 34.1079 51.5838 33.4407 51.5838C30.3411 51.5838 27.2276 51.5838 24.1281 51.5838C24.0447 51.5838 23.9613 51.5838 23.864 51.5838Z" fill="#016938"/>
<path d="M16.6498 41.7705C14.2869 43.5913 12.758 45.9125 12.0352 48.7619C11.4375 48.7619 10.8677 48.7619 10.2978 48.7619C7.25382 48.7619 4.19595 48.7619 1.15198 48.7619C0.22072 48.7619 0.0400279 48.5395 0.151223 47.5943C0.762797 42.5766 5.07161 38.8238 10.1032 38.9767C12.6051 39.0601 14.7734 39.9913 16.6498 41.7705Z" fill="#016938"/>
<path d="M35.7757 48.7624C34.3441 44.8706 34.0383 44.4258 31.1611 41.7571C31.314 41.6181 31.453 41.4652 31.6059 41.3401C34.6221 38.8939 37.9857 38.2406 41.5718 39.7C45.1717 41.1595 47.1872 43.9671 47.6736 47.8451C47.7431 48.401 47.5068 48.7485 47.0065 48.7485C43.2675 48.7763 39.5286 48.7624 35.7757 48.7624Z" fill="#016938"/>
<path d="M23.8636 29.1216C26.991 29.1077 29.5624 31.6513 29.5624 34.7926C29.5624 37.92 26.991 40.5053 23.8775 40.4914C20.764 40.4914 18.2483 37.9617 18.2066 34.8204C18.1649 31.7208 20.7224 29.1355 23.8636 29.1216Z" fill="#016938"/>
<path d="M9.81084 38.4625C6.90587 38.4486 4.54297 36.0996 4.54297 33.1946C4.54297 30.2757 6.91977 27.8989 9.83864 27.8989C12.7436 27.8989 15.0926 30.2618 15.1065 33.1668C15.1343 36.0857 12.7436 38.4625 9.81084 38.4625Z" fill="#016938"/>
<path d="M37.9161 38.4623C35.0112 38.4484 32.6483 36.0716 32.6622 33.1805C32.6761 30.2478 35.0529 27.8988 37.9856 27.9127C40.8906 27.9266 43.2396 30.3034 43.2396 33.1944C43.2257 36.1133 40.8489 38.4762 37.9161 38.4623Z" fill="#016938"/>
<path d="M22.5995 13.9717C23.8643 12.7347 25.004 11.6088 26.1577 10.5108C26.394 10.2884 26.7137 10.0799 27.0195 9.9826C27.5754 9.82971 28.1453 10.1216 28.4372 10.622C28.7152 11.0946 28.6874 11.7617 28.2843 12.1787C26.7554 13.7632 25.1986 15.3339 23.628 16.8767C23.1137 17.391 22.3771 17.3771 21.835 16.8767C21.0427 16.1539 20.2782 15.3895 19.5277 14.625C18.9995 14.0829 19.0273 13.249 19.5416 12.7486C20.0559 12.2343 20.8481 12.2204 21.418 12.7069C21.6404 12.9015 21.8489 13.11 22.0574 13.3185C22.2659 13.5409 22.4327 13.7771 22.5995 13.9717Z" fill="#016938"/>
</svg>
