<svg width="38" height="55" viewBox="0 0 38 55" fill="none" xmlns="http://www.w3.org/2000/svg">
<path d="M27.0957 41.3506C28.1113 37.9758 30.2166 35.0982 32.3007 32.2312C32.8508 31.4801 33.401 30.7289 33.9299 29.9672C36.0246 26.9522 37.2518 23.3023 37.2518 19.3562C37.2518 9.06259 28.9153 0.726074 18.6323 0.726074C8.34921 0.726074 0.0126953 9.06259 0.0126953 19.3456C0.0126953 23.2917 1.23992 26.9522 3.33458 29.9566C3.86359 30.7184 4.41368 31.4695 4.96378 32.2206C7.05849 35.0876 9.16378 37.9758 10.1688 41.34H27.0957V41.3506ZM18.6323 54.8921C23.3083 54.8921 27.0957 51.1046 27.0957 46.4286V44.7359H10.1688V46.4286C10.1688 51.1046 13.9562 54.8921 18.6323 54.8921ZM10.1688 19.3456C10.1688 20.2766 9.40711 21.0383 8.47613 21.0383C7.54515 21.0383 6.78344 20.2766 6.78344 19.3456C6.78344 12.7971 12.0837 7.49682 18.6323 7.49682C19.5632 7.49682 20.3249 8.25853 20.3249 9.18951C20.3249 10.1205 19.5632 10.8822 18.6323 10.8822C13.9562 10.8822 10.1688 14.6696 10.1688 19.3456Z" fill="#016938"/>
</svg>
