<svg width="55" height="52" viewBox="0 0 55 52" fill="none" xmlns="http://www.w3.org/2000/svg">
<path d="M49.4888 38.6962C50.9665 38.6962 52.2124 39.2116 53.226 40.2426C53.4388 40.4591 53.6292 40.6833 53.7968 40.915C54.903 42.4457 53.5549 44.2864 51.7859 44.9474L35.4352 51.0559C34.5189 51.3985 33.5171 51.438 32.5766 51.1691L19.3018 47.3765C17.3374 46.8152 15.983 45.0197 15.983 42.9767V27.4945C15.983 25.1403 17.8914 23.2319 20.2456 23.2319C20.7504 23.2319 21.2512 23.3216 21.7247 23.4968L39.7463 30.1651C41.0866 30.6977 41.7567 31.6599 41.7567 33.0517C41.7567 33.8593 41.4646 34.5638 40.8804 35.1652C40.2962 35.7666 39.5573 36.0844 38.6638 36.1188H32.1832C31.6966 36.1188 31.2142 36.0296 30.7599 35.8556L28.1525 34.8574C27.4867 34.6025 26.7418 34.9475 26.5056 35.6203C26.274 36.2799 26.6211 37.0024 27.2808 37.2339L30.7115 38.438C31.1984 38.6089 31.7108 38.6962 32.2269 38.6962H49.4888ZM39.1793 3.20576C41.0007 1.09233 43.3203 0.0356445 46.1382 0.0356445C48.475 0.0356445 50.451 0.894766 52.066 2.61301C53.6813 4.33125 54.5404 6.30723 54.6434 8.54095C54.6434 10.3107 53.7842 12.4242 52.066 14.8813C50.3479 17.3384 48.6554 19.3917 46.9887 21.0412C45.8477 22.1704 44.2679 23.6741 42.2492 25.5522C40.5167 27.164 37.8363 27.1705 36.0958 25.5673C34.0495 23.6821 32.4484 22.1734 31.2925 21.0412C29.6087 19.3917 27.9162 17.3384 26.2151 14.8813C24.5141 12.4242 23.6807 10.3107 23.7151 8.54095C23.7151 6.2041 24.5484 4.22812 26.2151 2.61301C27.8819 0.997838 29.8922 0.138716 32.2462 0.0356445C34.9954 0.0356445 37.3064 1.09233 39.1793 3.20576ZM0.477539 27.8078C0.477539 25.2807 2.52622 23.2319 5.05342 23.2319H6.25236C8.77956 23.2319 10.8282 25.2807 10.8282 27.8078V47.0072C10.8282 49.5343 8.77956 51.5833 6.25236 51.5833H5.05342C2.52622 51.5833 0.477539 49.5343 0.477539 47.0071V27.8078Z" fill="#016938"/>
</svg>
