<svg width="41" height="33" viewBox="0 0 41 33" fill="none" xmlns="http://www.w3.org/2000/svg">
<g clip-path="url(#clip0_708_539)">
<path d="M0.588192 0.62119C5.79189 0.62119 10.9739 0.621191 16.1775 0.621191C16.1884 0.820637 16.1993 0.986841 16.1993 1.15305C16.1993 6.51593 16.2101 11.8899 16.1993 17.2528C16.1775 24.5547 11.4301 30.6156 4.46652 32.2334C3.71693 32.4107 2.93474 32.4771 2.13083 32.6101C2.13083 31.3137 2.13083 30.117 2.13083 28.8871C4.06456 28.6987 5.86793 28.1337 7.46489 27.0145C10.6914 24.7874 12.4187 21.6627 12.5599 17.6627C12.5925 16.8206 12.3209 16.5436 11.4736 16.5436C8.05153 16.5436 4.62947 16.5436 1.20742 16.5436C1.01187 16.5436 0.805467 16.5436 0.57733 16.5436C0.588194 11.2251 0.588191 5.95083 0.588192 0.62119Z" fill="white"/>
<path d="M26.5197 32.6211C26.5197 31.3025 26.5197 30.1169 26.5197 28.8981C28.0732 28.743 29.5506 28.3662 30.8977 27.6017C34.6674 25.4521 36.7098 22.1723 36.9488 17.7513C37.0031 16.7984 36.7315 16.5435 35.8081 16.5435C32.4186 16.5435 29.0292 16.5435 25.6397 16.5435C25.4333 16.5435 25.2378 16.5435 24.9879 16.5435C24.9879 11.225 24.9879 5.93966 24.9879 0.621096C30.159 0.621097 35.341 0.621097 40.5773 0.621098C40.5773 0.798384 40.5773 0.964586 40.5773 1.13079C40.5773 6.50475 40.599 11.8676 40.5773 17.2416C40.5447 24.5768 35.819 30.6266 28.8662 32.2444C28.1166 32.4216 27.3453 32.4881 26.5197 32.6211Z" fill="white"/>
</g>
<defs>
<clipPath id="clip0_708_539">
<rect width="40" height="32" fill="white" transform="translate(40.5879 32.6211) rotate(-180)"/>
</clipPath>
</defs>
</svg>
