<svg width="16" height="16" viewBox="0 0 16 16" fill="none" xmlns="http://www.w3.org/2000/svg">
<path d="M7.98485 8.77285C7.93792 8.84194 7.88695 8.9082 7.83221 8.97129C5.56895 11.2362 3.30537 13.5006 1.04147 15.7645C0.865456 15.9406 0.673697 16.0484 0.421358 15.9763C0.328855 15.9519 0.244055 15.9044 0.174887 15.8383C0.10572 15.7723 0.054443 15.6897 0.0258526 15.5984C-0.00273769 15.5071 -0.00770782 15.41 0.0114068 15.3163C0.0305214 15.2225 0.0730966 15.1352 0.135151 15.0624C0.176651 15.0123 0.225306 14.967 0.271576 14.9193C2.52689 12.6636 4.78252 10.4081 7.03846 8.15272C7.08733 8.10907 7.13896 8.06859 7.19302 8.03156L7.22402 7.95285C7.16201 7.91707 7.08855 7.89275 7.03942 7.84409C4.77775 5.58619 2.51894 3.32512 0.26299 1.06086C0.149794 0.94415 0.072335 0.797504 0.0397486 0.638217C-0.00175139 0.399707 0.122748 0.208899 0.340266 0.098707C0.557783 -0.0114847 0.766714 0.0171365 0.960381 0.163582C1.01121 0.205489 1.05903 0.250917 1.10348 0.299533C3.35148 2.5463 5.59916 4.79323 7.84652 7.04031C7.90525 7.1106 7.97256 7.17326 8.04687 7.22683C8.08216 7.16434 8.10649 7.09088 8.15515 7.04174C10.4213 4.77112 12.6883 2.50162 14.9564 0.233227C15.1381 0.051005 15.3356 -0.0529858 15.5951 0.0276307C15.6839 0.054064 15.7649 0.101886 15.8309 0.166902C15.8969 0.231918 15.9459 0.31214 15.9737 0.400532C16.0015 0.488923 16.0072 0.582783 15.9902 0.673875C15.9733 0.764968 15.9342 0.850511 15.8765 0.922999C15.827 0.98241 15.7736 1.0385 15.7167 1.09091C13.47 3.33863 11.2228 5.58588 8.97513 7.83264C8.92504 7.88321 8.8659 7.92423 8.79673 7.981C8.86446 8.05207 8.91169 8.10311 8.96034 8.15225C11.222 10.4159 13.4842 12.6814 15.7468 14.9488C15.8585 15.0612 15.9404 15.1995 15.9853 15.3514C16.0459 15.5737 15.9123 15.8099 15.7129 15.9239C15.6142 15.9809 15.5006 16.0069 15.3869 15.9984C15.2732 15.9899 15.1647 15.9473 15.0756 15.8762C15.0211 15.8301 14.9693 15.7809 14.9206 15.7288C12.6682 13.4782 10.4163 11.2271 8.16516 8.97558C8.1146 8.9255 8.07024 8.86921 7.98485 8.77285Z" fill="black"/>
</svg>
