<svg width="12" height="12" viewBox="0 0 12 12" fill="none" xmlns="http://www.w3.org/2000/svg">
<path d="M5.92351 6.11758C5.88869 6.16576 5.85088 6.21197 5.81027 6.25596C4.13129 7.83534 2.45207 9.41439 0.77261 10.9931C0.642032 11.1158 0.499778 11.191 0.312581 11.1408C0.243959 11.1238 0.181051 11.0907 0.129739 11.0446C0.0784273 10.9985 0.0403881 10.9409 0.0191786 10.8772C-0.00203094 10.8136 -0.005718 10.7459 0.00846203 10.6805C0.0226421 10.6152 0.0542262 10.5542 0.100261 10.5035C0.131047 10.4685 0.167142 10.4369 0.201467 10.4037C1.87455 8.83071 3.54788 7.25788 5.22144 5.68515C5.25769 5.6547 5.29599 5.62648 5.33609 5.60066L5.35909 5.54577C5.31309 5.52082 5.25859 5.50386 5.22214 5.46993C3.54434 3.89543 1.86866 2.31871 0.195097 0.739769C0.111124 0.658385 0.0536613 0.556125 0.0294872 0.445049C-0.00129926 0.278728 0.0910601 0.145672 0.252424 0.0688315C0.413787 -0.00800865 0.568782 0.0119498 0.712452 0.114071C0.750159 0.143294 0.785633 0.174973 0.818612 0.208873C2.48627 1.77561 4.1537 3.34247 5.82089 4.90943C5.86446 4.95844 5.91439 5.00214 5.96951 5.03949C5.9957 4.99591 6.01375 4.94469 6.04984 4.91043C7.73095 3.32705 9.41276 1.74446 11.0953 0.162636C11.2301 0.0355674 11.3766 -0.0369486 11.5691 0.0192678C11.635 0.0377005 11.6951 0.0710484 11.744 0.116386C11.793 0.161724 11.8294 0.217665 11.85 0.279303C11.8706 0.340942 11.8748 0.406393 11.8622 0.469914C11.8497 0.533436 11.8207 0.593088 11.7779 0.643636C11.7412 0.685065 11.7016 0.724179 11.6594 0.760725C9.99263 2.32813 8.32556 3.8952 6.65814 5.46195C6.62098 5.49721 6.5771 5.52581 6.52579 5.5654C6.57604 5.61496 6.61107 5.65055 6.64717 5.68481C8.32497 7.26331 10.0031 8.84313 11.6816 10.4243C11.7645 10.5026 11.8253 10.5991 11.8586 10.705C11.9035 10.86 11.8044 11.0247 11.6565 11.1042C11.5833 11.144 11.499 11.1621 11.4147 11.1562C11.3303 11.1503 11.2499 11.1205 11.1838 11.0709C11.1433 11.0388 11.1049 11.0045 11.0687 10.9682C9.39778 9.39876 7.72729 7.82902 6.05727 6.25895C6.01976 6.22403 5.98685 6.18477 5.92351 6.11758Z" fill="white"/>
</svg>
