<svg width="18" height="18" viewBox="0 0 18 18" fill="none" xmlns="http://www.w3.org/2000/svg">
<path d="M8.18284 17.4583C7.8515 17.4129 7.51543 17.3811 7.18409 17.322C5.72619 17.0719 4.41503 16.499 3.25534 15.6079C3.07547 15.467 3.04707 15.2988 3.17961 15.176C3.29321 15.0715 3.42101 15.0806 3.59142 15.2124C4.20203 15.6807 4.86471 16.058 5.58419 16.3445C6.59714 16.7446 7.64797 16.9446 8.76505 16.9446C8.73192 16.84 8.69879 16.7446 8.67512 16.6491C8.57098 16.2263 8.67039 15.8625 9.03959 15.5852C9.36147 15.3397 9.40407 14.8169 9.12953 14.5213C9.00646 14.3895 8.87866 14.2667 8.75559 14.1349C8.39585 13.7575 8.35325 13.2756 8.64199 12.8528C8.67512 12.7982 8.71772 12.7482 8.75085 12.6982C8.94019 12.3982 8.82186 12.0526 8.47632 11.9344C8.10238 11.8071 7.72843 11.6889 7.34976 11.5752C7.12255 11.507 6.95688 11.3797 6.83855 11.1797C6.59241 10.766 6.34154 10.3523 6.09067 9.94307C5.9534 9.71575 5.79719 9.71575 5.65046 9.93398C5.59839 10.0158 5.54632 10.0977 5.48952 10.1795C5.27652 10.4841 4.90731 10.5932 4.57124 10.4523C4.24463 10.3159 4.06003 9.97944 4.14996 9.63846C4.28723 9.10198 4.43397 8.57459 4.58544 8.04266C4.64224 7.83352 4.78424 7.68804 4.98778 7.58801C5.25285 7.46071 5.51319 7.32887 5.77353 7.19702C5.9392 7.11518 5.97233 7.02426 5.90133 6.86058C5.81613 6.65599 5.65993 6.52869 5.43272 6.47868C5.29545 6.4514 5.15345 6.42867 5.01618 6.40594C4.69904 6.35593 4.3961 6.265 4.12156 6.09678C3.76655 5.8831 3.40681 5.66942 3.04707 5.46937C2.63526 5.2375 2.34653 4.91471 2.21399 4.4737C2.20452 4.44642 2.19032 4.42369 2.15719 4.35095C1.92052 4.7283 1.68385 5.06474 1.48504 5.42391C-0.110125 8.31999 0.349018 11.8799 2.62106 14.3168C2.6684 14.3668 2.71573 14.4168 2.76307 14.4713C2.8814 14.6077 2.8814 14.7487 2.76307 14.8487C2.64946 14.9487 2.48379 14.9442 2.37019 14.8123C2.02465 14.394 1.65071 13.994 1.35251 13.5439C0.320618 12.0026 -0.129058 10.2931 0.0318783 8.46548C0.26855 5.76489 1.57971 3.6417 3.90856 2.10955C4.05056 2.01407 4.13576 1.92315 4.16416 1.74583C4.3109 0.831999 4.94518 0.213683 5.8824 0.0272787C5.90606 0.0227322 5.925 0.00909289 5.94393 0C6.1238 0 6.29894 0 6.47881 0C6.73441 0.0863824 6.99949 0.150033 7.24089 0.263694C7.41129 0.340983 7.57696 0.463737 7.70003 0.600131C7.8231 0.736524 7.9509 0.75471 8.11658 0.745617C9.494 0.641049 10.8146 0.863824 12.0832 1.36848C12.1211 1.38212 12.1589 1.4003 12.1968 1.41394C12.3577 1.49123 12.4193 1.62763 12.3577 1.76402C12.2962 1.89587 12.1495 1.93679 11.9791 1.88223C11.5388 1.73674 11.1034 1.57762 10.6537 1.45941C9.91528 1.26391 9.1532 1.20935 8.38638 1.23663C8.32011 1.23663 8.25858 1.24573 8.17811 1.25482C8.21598 1.41849 8.26331 1.56852 8.28224 1.71856C8.37691 2.38234 8.18758 2.99156 7.8799 3.5735C7.63377 4.04179 7.31189 4.46461 6.94268 4.85106C6.54981 5.26024 5.925 5.28297 5.52266 4.87833C4.88838 4.24183 4.41503 3.50985 4.1973 2.64148C4.19256 2.61875 4.1831 2.60057 4.1689 2.56874C4.11683 2.60057 4.06949 2.61875 4.03163 2.65058C3.57722 3.03248 3.12754 3.41438 2.67313 3.79173C2.58793 3.85993 2.59266 3.93267 2.6116 4.0327C2.72047 4.55554 3.00921 4.92835 3.51095 5.16021C3.67662 5.2375 3.83282 5.33298 3.97956 5.433C4.42923 5.73761 4.92151 5.91492 5.46586 5.97857C5.9534 6.03768 6.35101 6.41049 6.43621 6.8333C6.50248 7.17883 6.36521 7.46981 6.04807 7.63348C5.78773 7.76987 5.51792 7.88353 5.26232 8.02902C5.17712 8.07903 5.09191 8.17451 5.06351 8.26544C4.92151 8.73372 4.80317 9.20655 4.67537 9.67938C4.64224 9.80213 4.63277 9.92489 4.77951 9.98399C4.92624 10.0385 5.01145 9.95216 5.07771 9.8385C5.11558 9.77485 5.15818 9.7112 5.19605 9.64755C5.54159 9.12471 6.1948 9.12926 6.52141 9.66119C6.76755 10.0567 7.00895 10.4523 7.24089 10.8524C7.32136 10.9933 7.43023 11.0706 7.58643 11.1161C7.91777 11.2115 8.24911 11.3206 8.58045 11.4252C9.32833 11.6662 9.58394 12.3936 9.14846 13.0301C8.90232 13.3847 8.91652 13.5666 9.21946 13.8757C9.281 13.9394 9.3378 14.003 9.40407 14.0622C9.81588 14.4031 9.86794 14.8487 9.80168 15.3261C9.76854 15.5761 9.62654 15.7807 9.42773 15.9444C9.11533 16.1944 9.07273 16.5763 9.32833 16.8764C9.3662 16.9173 9.4798 16.9219 9.5508 16.9128C10.2608 16.84 10.9472 16.69 11.6146 16.4445C13.489 15.7443 14.9138 14.5486 15.8936 12.8573C15.922 12.8073 15.9457 12.7573 15.9835 12.6937C15.6001 12.4072 15.2167 12.1254 14.8522 11.8571C14.6345 12.2254 14.4404 12.5936 14.2085 12.9392C14.0381 13.1938 13.8298 13.4347 13.6121 13.6575C13.2429 14.0394 12.6275 14.0667 12.2583 13.6984C11.5625 13.0028 11.0324 12.2163 10.8572 11.2434C10.8478 11.1888 10.843 11.1297 10.8383 11.0751C10.8336 11.0206 10.8241 10.9615 10.8194 10.8933C10.7436 10.9024 10.6774 10.916 10.6111 10.9251C10.4076 10.9478 10.223 10.9115 10.0573 10.7933C9.84901 10.6523 9.64074 10.5114 9.44193 10.3613C9.08693 10.1022 9.01593 9.67029 9.281 9.32021C9.494 9.03378 9.71174 8.74736 9.93894 8.47457C10.1851 8.17905 10.2372 7.82898 10.3129 7.4789C10.4738 6.72419 10.9188 6.21953 11.7092 6.03313C11.8891 5.99221 12.0832 5.98767 12.2725 6.00131C12.6891 6.02858 12.8547 5.95129 13.0488 5.60577C13.134 5.45119 13.2192 5.29206 13.3091 5.14203C13.4843 4.84651 13.7494 4.6601 14.0996 4.62373C14.3789 4.59645 14.554 4.46006 14.6771 4.23274C14.7339 4.12817 14.7954 4.0236 14.857 3.90994C14.36 3.35982 13.7872 2.89154 13.1482 2.49145C13.0867 2.45508 13.0251 2.41871 12.9683 2.37779C12.8405 2.28686 12.8121 2.15047 12.8831 2.03226C12.9589 1.90951 13.1198 1.86859 13.2523 1.95497C13.5553 2.15047 13.8677 2.34142 14.1517 2.55965C15.8463 3.87812 16.9302 5.56485 17.2852 7.62893C17.7964 10.6205 16.8924 13.1983 14.5919 15.2761C13.1482 16.5809 11.3874 17.2492 9.41827 17.4356C9.37093 17.4402 9.32833 17.4538 9.281 17.4629C8.91652 17.4583 8.54732 17.4583 8.18284 17.4583ZM15.2357 4.31458C15.1647 4.43278 15.1173 4.51462 15.0605 4.59645C14.8948 4.85106 14.6676 5.0511 14.3505 5.08292C13.9955 5.1193 13.7778 5.28751 13.65 5.59667C13.6216 5.66487 13.5742 5.72397 13.5411 5.79217C13.2855 6.35593 12.8263 6.56052 12.2063 6.49232C11.8797 6.45595 11.5862 6.55143 11.3258 6.74238C11.0087 6.97425 10.8714 7.30159 10.8146 7.6653C10.7389 8.15632 10.5496 8.58823 10.2135 8.97013C10.0431 9.16563 9.89161 9.37477 9.73067 9.5839C9.61234 9.73848 9.62654 9.85214 9.78274 9.96126C9.96261 10.0886 10.1425 10.2159 10.3271 10.3386C10.5401 10.4796 10.8336 10.3704 10.9472 10.1568C11.0844 9.88851 11.2264 9.61118 11.43 9.39295C12.0311 8.75645 13.0157 8.60187 13.8251 8.97923C14.6582 9.36567 15.1221 10.225 14.98 11.1251C14.9611 11.2388 14.9848 11.3025 15.0794 11.3661C15.4203 11.6116 15.7563 11.8617 16.0924 12.1117C16.1303 12.139 16.1729 12.1663 16.2391 12.2072C17.3657 9.40205 17.0391 6.79239 15.2357 4.31458ZM6.20427 0.477377C5.98653 0.541027 5.75459 0.577398 5.55106 0.668327C4.85524 0.982032 4.53337 1.71856 4.71797 2.51418C4.90258 3.29617 5.35225 3.93722 5.90606 4.51917C6.09067 4.71466 6.37467 4.70102 6.55928 4.49189C6.76755 4.25547 6.97109 4.00996 7.15096 3.75082C7.49176 3.26435 7.7237 2.73696 7.77103 2.14137C7.84677 1.26391 7.12729 0.509202 6.20427 0.477377ZM14.4736 10.7569C14.4925 9.81577 13.5032 9.0747 12.495 9.35203C11.714 9.56572 11.2359 10.3386 11.3874 11.157C11.5436 12.0026 12.0217 12.6891 12.6133 13.3074C12.7932 13.4984 13.0677 13.4757 13.2571 13.2756C13.6216 12.8846 13.9434 12.4618 14.1706 11.9844C14.3458 11.6253 14.4688 11.2434 14.4736 10.7569Z" fill="white"/>
<path d="M6.20818 2.90458C5.69696 2.90003 5.28516 2.49995 5.28516 2.00893C5.28516 1.50882 5.7017 1.11328 6.22238 1.11328C6.74305 1.11328 7.15486 1.51337 7.15013 2.01348C7.15013 2.51359 6.72885 2.90913 6.20818 2.90458ZM6.61998 2.01348C6.62472 1.80434 6.45431 1.63158 6.23658 1.62703C6.00464 1.61794 5.82477 1.78161 5.82003 1.99984C5.8153 2.20897 5.9857 2.38174 6.20344 2.38629C6.43065 2.39538 6.61525 2.23171 6.61998 2.01348Z" fill="white"/>
<path d="M12.9122 9.89262C13.4234 9.88807 13.8541 10.3018 13.8541 10.7928C13.8541 11.2838 13.4234 11.693 12.9122 11.693C12.4057 11.6885 11.9844 11.2884 11.9844 10.8019C11.9797 10.3063 12.401 9.89262 12.9122 9.89262ZM12.9122 10.4064C12.6897 10.4109 12.5098 10.5973 12.5146 10.8065C12.524 11.011 12.7086 11.1838 12.9216 11.1793C13.1394 11.1747 13.3287 10.9883 13.3192 10.7792C13.3098 10.5746 13.1252 10.4018 12.9122 10.4064Z" fill="white"/>
</svg>
