<svg width="19" height="17" viewBox="0 0 19 17" fill="none" xmlns="http://www.w3.org/2000/svg">
<path d="M0 6.59748C0.113049 6.48009 0.207257 6.34391 0.334438 6.25C3.10886 4.22145 5.88798 2.19759 8.6624 0.169046C8.97329 -0.0563486 9.1146 -0.0563486 9.42549 0.169046C12.2187 2.20699 15.0167 4.24962 17.81 6.29226C17.9183 6.37208 17.9984 6.49417 18.0879 6.59748C18.0879 6.682 18.0879 6.76183 18.0879 6.84635C17.8712 7.25018 17.6074 7.30653 17.2306 7.03418C14.5504 5.07137 11.8655 3.11326 9.18997 1.15515C9.08163 1.07532 9.01097 1.07532 8.90263 1.15515C6.22242 3.11326 3.5375 5.07137 0.857291 7.02948C0.48046 7.30653 0.216678 7.24549 0 6.84166C0 6.76183 0 6.682 0 6.59748Z" fill="white"/>
<path d="M2.93507 15.1341C4.18803 15.1341 5.42687 15.1341 6.69396 15.1341C6.69396 15.059 6.69396 14.9933 6.69396 14.9228C6.69396 13.655 6.68925 12.3871 6.69396 11.1193C6.69867 9.98763 7.40523 9.07197 8.46978 8.79962C9.86876 8.44274 11.2772 9.44763 11.3808 10.8798C11.3949 11.1099 11.3949 11.3353 11.3949 11.5654C11.3949 12.6783 11.3949 13.7959 11.3949 14.9087C11.3949 14.9792 11.3949 15.0496 11.3949 15.1294C12.6526 15.1294 13.8914 15.1294 15.1538 15.1294C15.1538 15.059 15.1538 14.9933 15.1538 14.9275C15.1538 12.5374 15.1538 10.152 15.1538 7.76187C15.1538 7.41438 15.3517 7.20308 15.6578 7.22186C15.8651 7.23595 16.0347 7.38151 16.0771 7.58813C16.0912 7.64917 16.0912 7.71491 16.0912 7.78065C16.0912 10.3586 16.0912 12.9318 16.0912 15.5098C16.0912 15.6788 16.0771 15.8526 15.9263 15.9512C15.8321 16.0169 15.7002 16.0686 15.5872 16.0686C14.0375 16.078 12.4924 16.0733 10.9427 16.0733C10.6224 16.0733 10.4481 15.8808 10.4481 15.538C10.4481 14.0588 10.4528 12.5797 10.4481 11.1005C10.4481 10.3116 9.85934 9.6918 9.09626 9.66363C8.29078 9.63076 7.63133 10.2647 7.62662 11.0911C7.62191 12.5703 7.63133 14.0494 7.6172 15.5286C7.6172 15.6694 7.55596 15.8338 7.47117 15.9371C7.40052 16.0216 7.24507 16.0686 7.12732 16.0686C5.5776 16.078 4.03259 16.0733 2.48287 16.0733C2.19083 16.0733 2.01183 15.8995 1.99299 15.6084C1.98828 15.5521 1.98828 15.491 1.98828 15.4347C1.98828 12.9131 1.98828 10.3868 1.98828 7.86517C1.98828 7.78535 1.98828 7.70082 1.9977 7.621C2.03539 7.37682 2.23322 7.21716 2.47816 7.22655C2.71368 7.23595 2.89739 7.40969 2.92094 7.64917C2.92565 7.71491 2.92565 7.77595 2.92565 7.84169C2.92565 10.1989 2.92565 12.5609 2.92565 14.9181C2.93507 14.9839 2.93507 15.0543 2.93507 15.1341Z" fill="white"/>
</svg>
