<svg width="167" height="81" viewBox="0 0 167 81" fill="none" xmlns="http://www.w3.org/2000/svg">
<path d="M13.5633 49.472C13.3625 49.6728 12.9209 50.0742 12.0377 50.9976L14.326 52.7239C14.7676 52.3224 15.2494 51.8407 15.8114 51.1983C14.9684 50.4757 14.2457 49.9137 13.5633 49.472ZM8.94645 49.6728C8.74572 49.9137 8.30411 50.3553 7.4209 51.2385C7.90265 51.5195 8.66543 52.0815 9.74937 52.8845C10.3917 52.2823 10.8735 51.7604 11.2348 51.3589C10.2311 50.5961 9.46835 49.9939 8.94645 49.6728Z" fill="#393C3D"/>
<path d="M61.9794 57.9429C61.9794 58.3846 61.9392 58.786 61.8188 59.1473C61.6582 58.7459 61.4173 58.4648 61.0159 58.2641C60.4538 57.9831 59.7312 57.8627 58.848 57.8627H53.0669C50.8589 57.8627 49.4538 57.421 48.8917 56.5378L48.8114 56.4174L48.691 56.1765L48.3698 56.4977C47.4063 57.421 46.3625 57.9028 45.2786 57.9028C44.3151 57.9028 43.6727 57.5013 43.3917 56.7386L43.3114 56.5378L43.2311 56.2568L42.8296 56.578C41.7858 57.421 40.742 57.8627 39.7785 57.8627C38.815 57.8627 38.2128 57.5415 37.972 56.8189L37.8515 56.4977L37.5304 56.6984C36.3661 57.4612 35.0413 57.8627 33.6362 57.8627H33.3552C33.2347 57.8627 33.1544 57.8626 33.0741 57.8225V57.8627C31.2274 57.8627 29.9427 57.3006 29.2603 56.2167L29.18 56.0962L28.9792 55.8152L28.6982 56.2167C27.8551 57.3408 26.731 57.9028 25.2456 57.9028H24.6836C22.7967 57.9028 21.5121 57.5013 20.7894 56.6984L20.7091 56.6181H20.5485H20.4281C16.7748 57.9429 13.2419 58.5853 9.90982 58.5853C7.09959 58.5853 4.85141 58.1437 3.16527 57.2605C1.39884 56.297 0.515625 54.932 0.515625 53.0853C0.515625 51.8006 0.87694 50.4758 1.55942 49.1911L2.24191 49.3918C2.00103 50.0743 1.88059 50.6363 1.88059 51.1181C1.88059 52.5232 2.60322 53.6875 4.04848 54.4904C5.61418 55.3736 7.90251 55.8553 10.8733 55.8553C14.0449 55.8553 16.9755 55.4137 19.6653 54.5707L19.7858 54.5305L20.7091 52.4028C21.0704 52.1619 21.4318 51.9612 21.7931 51.7604C21.5522 52.4429 21.4719 52.9247 21.4719 53.2458C21.4719 53.6875 21.6325 54.3298 22.5157 54.7714C23.0777 55.0524 23.8405 55.213 24.7237 55.213H25.4464C28.0559 55.213 28.6179 53.8882 28.6179 52.7641C28.6179 49.6728 28.4172 46.5414 28.0559 43.41C28.8186 42.8079 29.461 42.3261 29.9427 41.9648C30.0632 42.9283 30.1435 44.0524 30.2238 45.3371C30.2639 46.2203 30.2639 47.4247 30.2639 48.9101C30.2639 49.5524 30.2639 50.3152 30.2238 51.1582C30.2238 52.0415 30.2238 52.5634 30.2238 52.7239C30.2238 53.6072 30.4245 54.2094 30.826 54.6108C31.2676 55.0123 31.9902 55.213 33.0741 55.213H33.1544V55.2532C33.2347 55.213 33.3552 55.213 33.4355 55.213H33.7165C35.3223 55.213 36.5668 54.9721 37.3698 54.4502C37.6508 54.2896 37.9318 54.0488 38.253 53.6875C38.3333 53.567 38.4939 53.4466 38.6544 53.2057L38.8953 52.9648L39.0961 52.7239C39.4975 52.5634 39.8588 52.4028 40.2201 52.2823C39.618 53.0451 39.3369 53.6473 39.3369 54.0889C39.3369 54.4904 39.4975 55.213 40.6216 55.213C41.3844 55.213 42.0669 54.9721 42.6691 54.5305C42.9902 54.2495 43.3114 53.8882 43.5523 53.4466L43.7129 53.1656L43.8333 52.8845C43.9136 52.7239 44.034 52.5634 44.1143 52.4429C44.4355 52.2823 44.7968 52.1218 45.1983 52.0013C44.5559 53.286 44.4756 53.6875 44.4756 53.9283C44.4756 54.7714 44.9172 55.213 45.7603 55.213C46.6435 55.213 47.3662 54.8918 47.9282 54.2896C48.1691 54.0488 48.41 53.6473 48.6107 53.1254L48.8516 52.5232C48.9319 52.3225 48.972 52.1619 49.0523 52.0013C49.4538 51.8006 49.8151 51.5999 50.0961 51.4794C49.8151 52.2422 49.6946 52.8042 49.6946 53.2057C49.6946 54.4904 50.8589 55.1729 53.2275 55.1729L60.2129 55.213C61.0961 55.213 61.6582 55.4539 61.8188 55.8955C61.8589 56.5378 61.9794 57.1802 61.9794 57.9429Z" fill="#393C3D"/>
<path d="M58.848 49.7933L57.4429 51.3991C57.9246 51.64 58.6874 52.1218 59.7713 52.8444C60.4538 52.3225 60.9356 51.8006 61.1765 51.3991C60.2531 50.6363 59.4903 50.0743 58.848 49.7933Z" fill="#393C3D"/>
<path d="M102.326 53.7275C102.326 54.129 102.085 55.0122 101.042 56.8991C98.9138 56.8991 95.2605 57.0597 90.0817 57.3808C84.8225 57.702 80.567 57.8626 77.5159 57.8626H76.432C76.3115 57.8626 76.2313 57.8626 76.151 57.8224V57.8626H74.7458L74.7057 58.0633C74.2641 59.5889 73.5415 60.8735 72.4575 61.9575C71.2933 63.1217 70.0086 63.7239 68.6436 63.7239C67.0779 63.7239 65.2714 63.202 63.3042 62.1181L63.5049 61.7568C64.3079 61.9976 65.0305 62.1582 65.7531 62.1582C67.3188 62.1582 69.0049 61.5962 70.8115 60.4721C72.0159 59.7093 72.7787 59.0268 73.1801 58.3443L73.421 57.9027H72.3772C68.4028 57.9027 66.4356 56.7385 66.4356 54.3297C66.4356 53.2458 66.9174 52.2421 67.8407 51.3589C68.7641 50.4757 69.7276 50.0341 70.7714 50.0341C72.6984 50.0341 74.0634 51.7202 74.8663 55.0925L74.9064 55.3334H76.1911V55.3735C76.2714 55.3334 76.3918 55.3334 76.4721 55.3334H77.7969C80.1656 55.3334 82.494 55.2932 84.7824 55.2129C86.3481 55.1728 88.2349 55.0925 90.3627 54.9721C94.8189 54.7312 97.9905 54.6509 99.797 54.6509H100.319L100.078 54.2093C99.3554 52.9648 97.6693 52.3626 94.9795 52.3626C93.7751 52.3626 91.8079 52.4429 89.1583 52.6436C87.8335 52.7239 86.8298 52.8042 86.1473 52.8443C85.0634 52.8845 84.0597 52.9246 83.1765 52.9246C79.9648 52.9246 78.3188 52.1618 78.3188 50.5961C78.3188 49.9939 78.5999 49.191 79.1619 48.2275C79.8846 46.9428 81.0889 45.8187 82.6948 44.8151C84.3408 43.7713 85.7057 43.2494 86.7495 43.2494C87.9138 43.2494 88.0744 43.8114 88.0744 44.2932C88.0744 44.8552 87.7933 45.5779 87.2313 46.4209H87.151C86.7897 46.0596 86.3882 45.899 85.9868 45.899C85.0634 45.899 83.8992 46.2603 82.3736 47.0231C80.7678 47.826 80.005 48.5085 80.005 49.1509C80.005 49.7932 80.9283 50.0341 81.2495 50.1545C81.9721 50.3553 82.8955 50.4355 83.9795 50.4355C85.0233 50.4355 86.1072 50.3954 87.2313 50.3553C87.9539 50.3151 88.9576 50.275 90.2422 50.1947C92.8116 50.0341 94.7788 49.9538 96.0634 49.9538C98.151 49.9538 99.7167 50.3151 100.801 51.0779C101.804 51.6801 102.326 52.6034 102.326 53.7275Z" fill="#393C3D"/>
<path d="M110.877 63.3626C108.268 63.3626 106.542 62.2787 105.578 60.0305C105.458 59.5086 105.377 58.9867 105.377 58.5451V58.2239C105.377 56.8991 106.02 55.3334 107.224 53.6071L107.425 54.1692C106.863 55.2531 106.582 56.0962 106.502 56.7385C106.502 58.6655 107.545 59.9101 109.593 60.5122C110.195 60.6327 110.677 60.713 111.078 60.713H111.48C113.326 60.713 115.013 60.0706 116.498 58.786C116.819 58.4648 116.98 58.1838 116.98 57.8626C116.98 57.4611 116.739 56.6582 114.531 54.0889C115.133 53.2859 115.735 52.5232 116.418 51.8005C116.819 52.5232 117.221 53.2458 117.542 53.8881C117.983 54.7713 118.505 55.213 119.148 55.213H122.881C126.334 55.213 129.305 55.2531 131.794 55.2932C131.794 55.2932 131.794 55.2932 131.834 55.2932C133.359 55.2932 134.403 56.8589 133.961 58.3042C133.881 58.5049 133.801 58.7057 133.721 58.9064C133.6 58.6254 133.359 58.4246 133.078 58.2239C132.757 57.983 131.914 57.702 128.622 57.5816C127.859 57.5414 126.976 57.5414 126.013 57.5414C123.925 57.5414 121.356 57.5816 118.385 57.702H118.144L118.104 57.9429C117.903 59.067 117.341 60.1911 116.377 61.2349C114.812 62.64 112.965 63.3626 110.877 63.3626Z" fill="#393C3D"/>
<path d="M135.286 59.4283C136.41 58.1838 136.972 56.4575 136.972 54.2495C136.972 51.64 136.772 47.9064 136.33 43.0888L138.418 41.0414C138.458 41.0414 138.498 41.0815 138.538 41.0815C138.779 44.1326 138.939 47.0633 138.939 49.7129V54.0086C138.939 55.0524 138.699 56.4173 137.655 57.4611C136.491 58.5049 135.728 59.1071 135.286 59.4283Z" fill="#393C3D"/>
<path d="M152.107 59.7094L150.702 61.3152C151.706 61.8772 152.469 62.3991 153.071 62.8006C153.633 62.359 154.074 61.8371 154.436 61.2751C153.713 60.6729 152.91 60.151 152.107 59.7094Z" fill="#393C3D"/>
<path d="M162.827 49.7933L161.421 51.3991C161.863 51.64 162.666 52.1218 163.75 52.8444C164.432 52.3225 164.914 51.8006 165.155 51.3991C164.232 50.6363 163.469 50.0743 162.827 49.7933Z" fill="#393C3D"/>
<path d="M165.958 57.943C165.958 58.3846 165.918 58.7861 165.797 59.1474C165.637 58.7459 165.396 58.4649 164.994 58.2642C164.432 57.9831 163.71 57.8627 162.827 57.8627H157.046C155.56 57.8627 154.516 57.5014 153.954 56.859C153.553 56.4174 153.151 55.4138 152.67 53.8481L152.469 53.1254L152.389 52.7641L151.987 53.2459C151.305 53.9284 150.702 54.37 149.859 54.5306L149.578 54.5707L149.618 54.8517C149.699 55.2933 149.739 55.7751 149.739 56.3773C149.739 57.5415 149.378 58.6255 148.695 59.589C147.531 61.235 146.246 62.078 144.881 62.078C143.637 62.078 141.991 61.5963 139.983 60.6328L140.184 60.2715C140.786 60.432 141.348 60.5123 141.83 60.5123C143.556 60.5123 145.202 59.87 146.688 58.6255C147.892 57.6218 148.615 56.8189 148.816 56.1364V56.0963V56.0561C148.816 55.6948 148.494 55.0926 146.166 53.4466C146.487 52.4831 146.808 51.6802 147.089 51.0379L147.29 51.1583L147.611 51.359C147.892 51.5597 148.133 51.7203 148.334 51.8006C148.896 52.1218 149.458 52.2824 150.02 52.2824C150.943 52.2824 151.706 51.9211 152.348 51.2386C152.469 51.1181 152.589 50.9576 152.67 50.797L152.951 50.3554C153.151 50.0743 153.272 49.8736 153.392 49.7532H153.472C153.553 49.9138 153.593 50.1546 153.673 50.4758L153.713 50.7568L153.794 51.0379L153.914 51.5999C154.155 52.6437 154.436 53.4065 154.717 53.9284C155.239 54.7714 156.002 55.213 157.086 55.213H163.87C164.754 55.213 165.516 55.4941 165.717 55.9357C165.838 56.5379 165.958 57.1802 165.958 57.943Z" fill="#393C3D"/>
<path d="M0.154297 74.0817H3.36599V74.4831H0.997366V76.2897H3.00467V76.6912H0.997366V78.4977H3.36599V78.8992H0.154297V74.0817Z" fill="#393C3D"/>
<path d="M5.61435 74.7641V78.9393H5.21289V74.0817H6.21654L8.66546 78.2569V74.0817H9.06692V78.9393H8.06327L5.61435 74.7641Z" fill="#393C3D"/>
<path d="M14.8479 74.1218L14.7676 74.5634C14.607 74.5233 14.4464 74.4831 14.2859 74.443C14.1253 74.4028 13.9647 74.4028 13.8442 74.4028C13.5632 74.4028 13.2822 74.443 13.0815 74.5233C12.8406 74.6036 12.6399 74.724 12.4793 74.9247C12.3187 75.0853 12.1581 75.3262 12.0778 75.5671C11.9975 75.8481 11.9172 76.1291 11.9172 76.4904C11.9172 76.8518 11.9574 77.1328 12.0778 77.4138C12.1581 77.6948 12.3187 77.8956 12.4793 78.0963C12.6399 78.297 12.8406 78.4175 13.0815 78.5379C13.3223 78.6182 13.5632 78.6985 13.8442 78.6985C13.9647 78.6985 14.045 78.6985 14.1253 78.6583V76.5306H14.9683V78.9795H14.6472C14.4866 79.0196 14.326 79.0598 14.1654 79.0598C14.0048 79.0598 13.8442 79.0999 13.6837 79.0999C13.2822 79.0999 12.9209 79.0598 12.5997 78.9394C12.2785 78.8189 11.9574 78.6583 11.7165 78.4175C11.4756 78.2167 11.2749 77.9357 11.1143 77.6145C10.9537 77.2934 10.9136 76.932 10.9136 76.4904C10.9136 76.089 10.9939 75.7277 11.1545 75.4065C11.315 75.0853 11.5158 74.8445 11.7566 74.6437C11.9975 74.443 12.3187 74.2824 12.6399 74.162C12.961 74.0415 13.3223 74.0014 13.7238 74.0014C14.0851 73.9612 14.4866 74.0014 14.8479 74.1218Z" fill="#393C3D"/>
<path d="M17.658 74.0817V78.9393H16.8149V74.0817H17.658Z" fill="#393C3D"/>
<path d="M19.9063 74.7641V78.9393H19.5049V74.0817H20.5085L22.9574 78.2569V74.0817H23.3589V78.9393H22.3553L19.9063 74.7641Z" fill="#393C3D"/>
<path d="M25.2456 74.0817H28.4573V74.4831H26.1288V76.2897H28.1361V76.6912H26.1288V78.4977H28.4573V78.8992H25.2456V74.0817Z" fill="#393C3D"/>
<path d="M30.3042 74.0817H33.5159V74.4831H31.1874V76.2897H33.1947V76.6912H31.1874V78.4977H33.5159V78.8992H30.3042V74.0817Z" fill="#393C3D"/>
<path d="M35.3628 78.9393V74.0817H37.2497C37.4905 74.0817 37.7314 74.1218 37.9723 74.162C38.2132 74.2422 38.4139 74.3225 38.6146 74.443C38.8154 74.5634 38.9358 74.724 39.0562 74.9247C39.1767 75.1255 39.2168 75.3262 39.2168 75.6072C39.2168 75.8079 39.1767 75.9685 39.1365 76.1291C39.0562 76.2897 38.9759 76.4101 38.8957 76.5306C38.7752 76.651 38.6548 76.7313 38.5343 76.8518C38.4139 76.9722 38.2533 77.0123 38.0526 77.0525L39.0964 78.9393H38.0927L37.0891 77.1328H36.2059V78.9393H35.3628ZM36.2059 74.4831V76.7313H37.2497C37.4102 76.7313 37.5307 76.6912 37.6511 76.651C37.7716 76.6109 37.892 76.5306 37.9723 76.4503C38.0526 76.37 38.1329 76.2496 38.173 76.089C38.2132 75.9284 38.2533 75.7678 38.2533 75.6072C38.2533 75.4065 38.2132 75.2459 38.173 75.1255C38.1329 75.005 38.0526 74.8846 37.9723 74.7641C37.892 74.6839 37.7716 74.6036 37.6511 74.5634C37.5307 74.5233 37.4102 74.4831 37.2497 74.4831H36.2059Z" fill="#393C3D"/>
<path d="M41.9065 74.0817V78.9393H41.0635V74.0817H41.9065Z" fill="#393C3D"/>
<path d="M44.1544 74.7641V78.9393H43.7529V74.0817H44.7566L47.2055 78.2569V74.0817H47.607V78.9393H46.6033L44.1544 74.7641Z" fill="#393C3D"/>
<path d="M53.4285 74.1218L53.3482 74.5634C53.1876 74.5233 53.027 74.4831 52.8664 74.443C52.7058 74.4028 52.5452 74.4028 52.4248 74.4028C52.1438 74.4028 51.8628 74.443 51.662 74.5233C51.4212 74.6036 51.2204 74.724 51.0598 74.9247C50.8993 75.0853 50.7387 75.3262 50.6584 75.5671C50.5781 75.8481 50.4978 76.1291 50.4978 76.4904C50.4978 76.8518 50.5379 77.1328 50.6584 77.4138C50.7387 77.6948 50.8993 77.8956 51.0598 78.0963C51.2204 78.297 51.4212 78.4175 51.662 78.5379C51.9029 78.6182 52.1438 78.6985 52.4248 78.6985C52.5452 78.6985 52.6255 78.6985 52.7058 78.6583V76.5306H53.5489V78.9795H53.2277C53.0671 79.0196 52.9066 79.0598 52.746 79.0598C52.5854 79.0598 52.4248 79.0999 52.2642 79.0999C51.8628 79.0999 51.5014 79.0598 51.1803 78.9394C50.8591 78.8189 50.5379 78.6583 50.2971 78.4175C50.0562 78.2167 49.8555 77.9357 49.6949 77.6145C49.5343 77.2934 49.4941 76.932 49.4941 76.4904C49.4941 76.089 49.5744 75.7277 49.735 75.4065C49.8956 75.0853 50.0963 74.8445 50.3372 74.6437C50.5781 74.443 50.8993 74.2824 51.2204 74.162C51.5416 74.0415 51.9029 74.0014 52.3044 74.0014C52.6657 73.9612 53.027 74.0014 53.4285 74.1218Z" fill="#393C3D"/>
<path d="M59.1691 73.7605V80.7058H58.7275V73.7605H59.1691Z" fill="#393C3D"/>
<path d="M64.7491 75.2058V78.9393H64.3477V74.0817H65.271L66.5958 77.8153L67.8805 74.0817H68.7637V78.9393H67.9207V75.2058L66.636 78.9393H66.0739L64.7491 75.2058Z" fill="#393C3D"/>
<path d="M72.6982 74.0817H73.2603L75.3479 78.9393H74.4245L73.742 77.3335H71.815L71.1325 78.9393H70.6909L72.6982 74.0817ZM73.5011 76.932L72.6982 75.0853L71.8953 76.932H73.5011Z" fill="#393C3D"/>
<path d="M77.5562 74.7641V78.9393H77.1548V74.0817H78.1584L80.6073 78.2569V74.0817H81.0088V78.9393H80.0453L77.5562 74.7641Z" fill="#393C3D"/>
<path d="M84.9429 74.0817H85.5049L87.5925 78.9393H86.6691L85.9867 77.3335H84.0596L83.3772 78.9393H82.9355L84.9429 74.0817ZM85.7458 76.932L84.9429 75.0853L84.1399 76.932H85.7458Z" fill="#393C3D"/>
<path d="M92.6912 74.1218L92.6109 74.5634C92.4503 74.5233 92.2897 74.4831 92.1291 74.443C91.9685 74.4028 91.8079 74.4028 91.6875 74.4028C91.4065 74.4028 91.1255 74.443 90.9247 74.5233C90.6839 74.6036 90.4831 74.724 90.3225 74.9247C90.162 75.0853 90.0014 75.3262 89.9211 75.5671C89.8408 75.8481 89.7605 76.1291 89.7605 76.4904C89.7605 76.8518 89.8006 77.1328 89.9211 77.4138C90.0014 77.6948 90.162 77.8956 90.3225 78.0963C90.4831 78.297 90.6839 78.4175 90.9247 78.5379C91.1656 78.6182 91.4065 78.6985 91.6875 78.6985C91.8079 78.6985 91.8882 78.6985 91.9685 78.6583V76.5306H92.8116V78.9795H92.4904C92.3298 79.0196 92.1693 79.0598 92.0087 79.0598C91.8481 79.0598 91.6875 79.0999 91.5269 79.0999C91.1255 79.0999 90.7641 79.0598 90.443 78.9394C90.1218 78.8189 89.8006 78.6583 89.5598 78.4175C89.3189 78.2167 89.1182 77.9357 88.9576 77.6145C88.797 77.2934 88.7568 76.932 88.7568 76.4904C88.7568 76.089 88.8371 75.7277 88.9977 75.4065C89.1583 75.0853 89.359 74.8445 89.5999 74.6437C89.8408 74.443 90.162 74.2824 90.4831 74.162C90.8043 74.0415 91.1656 74.0014 91.5671 74.0014C91.9284 73.9612 92.3298 74.0014 92.6912 74.1218Z" fill="#393C3D"/>
<path d="M94.6582 74.0817H97.8699V74.4831H95.5414V76.2897H97.5487V76.6912H95.5414V78.4977H97.8699V78.8992H94.6582V74.0817Z" fill="#393C3D"/>
<path d="M100.118 75.2058V78.9393H99.7168V74.0817H100.64L101.965 77.8153L103.25 74.0817H104.133V78.9393H103.29V75.2058L102.005 78.9393H101.443L100.118 75.2058Z" fill="#393C3D"/>
<path d="M105.979 74.0817H109.191V74.4831H106.863V76.2897H108.87V76.6912H106.863V78.4977H109.191V78.8992H105.979V74.0817Z" fill="#393C3D"/>
<path d="M111.44 74.7641V78.9393H111.038V74.0817H112.042L114.491 78.2569V74.0817H114.892V78.9393H113.888L111.44 74.7641Z" fill="#393C3D"/>
<path d="M119.348 74.4831V78.9393H118.505V74.4831H116.779V74.0817H121.074V74.4831H119.348Z" fill="#393C3D"/>
<path d="M126.695 73.7605V80.7058H126.253V73.7605H126.695Z" fill="#393C3D"/>
<path d="M131.914 75.3663C131.914 75.0853 131.994 74.8846 132.115 74.6839C132.235 74.5233 132.436 74.3627 132.637 74.2423C132.837 74.1218 133.038 74.0415 133.279 74.0014C133.52 73.9612 133.721 73.9211 133.921 73.9211C134.122 73.9211 134.283 73.9211 134.443 73.9612C134.604 74.0014 134.724 74.0415 134.845 74.0817C134.965 74.1218 135.086 74.2021 135.166 74.2824C135.246 74.3627 135.326 74.4028 135.407 74.4831C135.567 74.6437 135.688 74.8444 135.728 75.0853L135.326 75.2459C135.286 75.0853 135.206 74.9247 135.126 74.8043C135.045 74.6839 134.885 74.6036 134.724 74.4831C134.524 74.4028 134.283 74.3627 133.962 74.3627C133.881 74.3627 133.761 74.3627 133.64 74.4028C133.52 74.443 133.399 74.4831 133.279 74.5233C133.159 74.5634 133.078 74.6437 132.998 74.7641C132.918 74.8444 132.878 74.9649 132.878 75.0853C132.878 75.286 132.958 75.4065 133.118 75.5269C133.279 75.6474 133.44 75.7277 133.68 75.8481C133.921 75.9284 134.122 76.0087 134.403 76.1291C134.644 76.2094 134.885 76.3299 135.126 76.4503C135.367 76.5707 135.527 76.7313 135.688 76.932C135.848 77.1328 135.929 77.3737 135.929 77.6547C135.929 77.9357 135.848 78.1364 135.728 78.3372C135.608 78.4977 135.407 78.6583 135.206 78.7788C135.005 78.8992 134.805 78.9795 134.564 79.0196C134.323 79.0598 134.122 79.0999 133.921 79.0999C133.721 79.0999 133.56 79.0999 133.399 79.0598C133.239 79.0196 133.118 78.9795 132.998 78.9393C132.878 78.8992 132.757 78.8189 132.677 78.7386C132.597 78.6583 132.516 78.578 132.436 78.5379C132.275 78.3773 132.155 78.1766 132.115 77.9758L132.476 77.8153C132.516 77.9758 132.597 78.1364 132.717 78.2569C132.837 78.3773 132.958 78.4576 133.159 78.578C133.359 78.6583 133.6 78.6985 133.921 78.6985C134.002 78.6985 134.122 78.6985 134.243 78.6583C134.363 78.6182 134.483 78.578 134.604 78.5379C134.724 78.4977 134.805 78.4174 134.885 78.297C134.965 78.1766 135.005 78.0963 135.005 77.9357C135.005 77.8153 134.965 77.6948 134.885 77.5744C134.805 77.4941 134.684 77.3736 134.564 77.3335C134.443 77.2532 134.283 77.1729 134.082 77.1328C133.881 77.0525 133.721 77.0123 133.52 76.932C133.319 76.8517 133.159 76.7715 132.958 76.6912C132.757 76.6109 132.637 76.4904 132.476 76.37C132.356 76.2496 132.235 76.1291 132.155 75.9685C131.954 75.7678 131.914 75.5671 131.914 75.3663Z" fill="#393C3D"/>
<path d="M140.104 74.4831V78.9393H139.26V74.4831H137.534V74.0817H141.83V74.4831H140.104Z" fill="#393C3D"/>
<path d="M144.52 74.0817V77.6145C144.52 77.7751 144.56 77.9357 144.6 78.0963C144.64 78.2167 144.721 78.3372 144.841 78.4174C144.921 78.4977 145.042 78.578 145.162 78.6182C145.283 78.6583 145.403 78.6985 145.564 78.6985C145.724 78.6985 145.845 78.6583 145.965 78.6182C146.086 78.578 146.206 78.4977 146.326 78.4174C146.447 78.3372 146.527 78.2167 146.567 78.0561C146.648 77.8956 146.648 77.735 146.648 77.5342V74.0817H147.491V77.5342C147.491 77.7751 147.45 78.016 147.33 78.2167C147.21 78.4174 147.089 78.578 146.888 78.6985C146.688 78.8189 146.487 78.9393 146.286 78.9795C146.045 79.0598 145.805 79.0598 145.564 79.0598C145.323 79.0598 145.082 79.0196 144.881 78.9795C144.64 78.8992 144.44 78.8189 144.279 78.6985C144.118 78.578 143.958 78.4175 143.837 78.2569C143.717 78.0561 143.677 77.8554 143.677 77.6145V74.0817H144.52Z" fill="#393C3D"/>
<path d="M149.337 74.0817H150.221C150.582 74.0817 150.983 74.1218 151.305 74.2423C151.666 74.3225 151.987 74.4831 152.228 74.6839C152.509 74.8846 152.71 75.1255 152.87 75.4466C153.031 75.7678 153.111 76.1291 153.111 76.5306C153.111 76.932 153.031 77.2934 152.87 77.6145C152.71 77.9357 152.509 78.1766 152.228 78.3773C151.947 78.578 151.666 78.7386 151.305 78.8189C150.943 78.8992 150.582 78.9795 150.221 78.9795H149.337V74.0817ZM150.221 74.4831V78.4977C150.502 78.4977 150.743 78.4576 150.983 78.3773C151.224 78.297 151.425 78.1766 151.586 78.016C151.746 77.8554 151.907 77.6547 151.987 77.3736C152.107 77.1328 152.148 76.8116 152.148 76.4904C152.148 76.1291 152.107 75.8481 151.987 75.6072C151.867 75.3663 151.746 75.1656 151.586 74.9649C151.425 74.8043 151.184 74.6839 150.983 74.6036C150.743 74.5634 150.502 74.4831 150.221 74.4831Z" fill="#393C3D"/>
<path d="M155.841 74.0817V78.9393H154.998V74.0817H155.841Z" fill="#393C3D"/>
<path d="M157.688 74.0817H160.9V74.4831H158.571V76.2897H160.579V76.6912H158.571V78.4977H160.9V78.8992H157.688V74.0817Z" fill="#393C3D"/>
<path d="M162.625 75.3663C162.625 75.0853 162.706 74.8846 162.826 74.6839C162.947 74.5233 163.147 74.3627 163.348 74.2423C163.549 74.1218 163.75 74.0415 163.99 74.0014C164.231 73.9612 164.432 73.9211 164.633 73.9211C164.834 73.9211 164.994 73.9211 165.155 73.9612C165.315 74.0014 165.436 74.0415 165.556 74.0817C165.677 74.1218 165.797 74.2021 165.877 74.2824C165.958 74.3627 166.038 74.4028 166.118 74.4831C166.279 74.6437 166.399 74.8444 166.439 75.0853L166.038 75.2459C165.998 75.0853 165.917 74.9247 165.837 74.8043C165.757 74.6839 165.596 74.6036 165.436 74.4831C165.235 74.4028 164.994 74.3627 164.673 74.3627C164.593 74.3627 164.472 74.3627 164.352 74.4028C164.231 74.443 164.111 74.4831 163.99 74.5233C163.87 74.5634 163.79 74.6437 163.709 74.7641C163.629 74.8444 163.589 74.9649 163.589 75.0853C163.589 75.286 163.669 75.4065 163.83 75.5269C163.99 75.6474 164.151 75.7277 164.392 75.8481C164.633 75.9284 164.834 76.0087 165.115 76.1291C165.355 76.2094 165.596 76.3299 165.837 76.4503C166.078 76.5707 166.239 76.7313 166.399 76.932C166.56 77.1328 166.64 77.3737 166.64 77.6547C166.64 77.9357 166.56 78.1364 166.439 78.3372C166.319 78.4977 166.118 78.6583 165.917 78.7788C165.717 78.8992 165.516 78.9795 165.275 79.0196C165.034 79.0598 164.834 79.0999 164.633 79.0999C164.432 79.0999 164.271 79.0999 164.111 79.0598C163.95 79.0196 163.83 78.9795 163.709 78.9393C163.589 78.8992 163.469 78.8189 163.388 78.7386C163.308 78.6583 163.228 78.578 163.147 78.5379C162.987 78.3773 162.866 78.1766 162.826 77.9758L163.188 77.8153C163.228 77.9758 163.308 78.1364 163.428 78.2569C163.549 78.3773 163.669 78.4576 163.87 78.578C164.071 78.6583 164.312 78.6985 164.633 78.6985C164.713 78.6985 164.834 78.6985 164.954 78.6583C165.074 78.6182 165.195 78.578 165.315 78.5379C165.436 78.4977 165.516 78.4174 165.596 78.297C165.677 78.1766 165.717 78.0963 165.717 77.9357C165.717 77.8153 165.677 77.6948 165.596 77.5744C165.516 77.4941 165.396 77.3736 165.275 77.3335C165.155 77.2532 164.994 77.1729 164.793 77.1328C164.593 77.0525 164.432 77.0123 164.231 76.932C164.031 76.8517 163.87 76.7715 163.669 76.6912C163.469 76.6109 163.348 76.4904 163.188 76.37C163.067 76.2496 162.947 76.1291 162.866 75.9685C162.666 75.7678 162.625 75.5671 162.625 75.3663Z" fill="#393C3D"/>
<path d="M0.234375 34.0159V9.7676L5.09206 16.753V34.0159H0.234375ZM22.395 34.0159L0.59569 1.4975H5.49352L22.7162 26.4282L22.8366 1.4975H27.5337V34.0159H22.395Z" fill="#016938"/>
<path d="M31.2676 6.39533V1.4975H54.472V6.39533H31.2676ZM31.2676 20.045V15.4684H54.472V20.045H31.2676ZM31.2676 34.0159V29.0779H54.472V34.0159H31.2676Z" fill="#016938"/>
<path d="M90.2424 29.0779H85.3848V34.0159H90.2424V29.0779Z" fill="#393C3D"/>
<path d="M100.359 21.3297L101.002 21.0085C102.688 20.1253 104.013 18.8406 105.016 17.1144C106.02 15.3881 106.502 13.5012 106.502 11.534C106.502 8.16177 105.538 5.67271 103.571 4.02672C101.604 2.38073 98.914 1.53766 95.5015 1.53766H85.6256V5.83329H94.7789C96.7862 5.83329 98.4724 6.2749 99.8373 7.19826C101.202 8.08148 101.845 9.60703 101.845 11.7348C101.845 13.8224 101.162 15.3881 99.8373 16.472C98.5125 17.556 96.8264 18.118 94.8191 18.118H85.5854V22.1326H96.0234L102.286 34.0962H107.786L100.359 21.3297Z" fill="#016938"/>
<path d="M57.7242 34.0159V29.921H69.206C70.3703 29.921 71.2133 29.921 71.8155 29.8808C73.0199 29.7604 73.9433 29.5998 74.5455 29.3991C76.6732 28.5961 77.717 27.1107 77.717 24.9428C77.717 22.8151 76.6331 21.2895 74.5053 20.3662C73.1805 19.8844 71.3739 19.6034 69.0856 19.6034H57.7242V15.1472H68.4834C69.3666 15.1472 70.1695 15.107 70.852 15.0267C71.5345 14.9465 72.2571 14.7457 73.0199 14.4246C73.7827 14.1034 74.3849 13.6216 74.8265 12.899C75.2681 12.2165 75.4688 11.2932 75.4688 10.2092C75.4688 9.40629 75.3484 8.68366 75.0674 8.12161C74.7863 7.51942 74.4652 7.07781 74.0637 6.75664C73.6622 6.43547 73.1403 6.1946 72.498 5.99387C71.8557 5.79313 71.2535 5.6727 70.6914 5.63255C70.1294 5.5924 69.4469 5.55226 68.6841 5.55226H57.6841V1.4975H69.3666C72.779 1.4975 75.4287 2.05954 77.2754 3.22378C79.1221 4.38802 80.0856 6.43547 80.0856 9.48658C80.0856 13.4209 77.9579 15.9903 73.7024 17.1143V17.3151C76.352 17.7968 78.5601 18.7202 80.3265 20.0049C82.0929 21.2895 83.0163 23.056 83.0163 25.264C83.0163 26.9903 82.6951 28.4757 82.0528 29.6801C81.4104 30.8845 80.4871 31.7677 79.2827 32.3699C78.0783 32.9721 76.7936 33.4137 75.4287 33.6545C74.0637 33.8954 72.4579 34.0159 70.6914 34.0159H57.7242Z" fill="#016938"/>
<path d="M109.994 34.0159L121.476 1.4975H128.622L141.107 34.0159H135.286L125.169 5.55226H124.888L115.414 34.0159H109.994Z" fill="#016938"/>
<path d="M141.107 23.9794H146.286C146.447 26.1071 147.29 27.6728 148.775 28.7166C150.301 29.7604 152.107 30.2823 154.235 30.2823C154.998 30.2823 155.761 30.202 156.524 30.0414C157.326 29.8808 158.129 29.64 158.932 29.2385C159.735 28.8772 160.418 28.3151 160.94 27.5925C161.462 26.8699 161.743 25.9867 161.743 25.0231C161.743 22.9356 160.578 21.3297 158.21 20.1655C157.688 19.9647 156.564 19.5633 154.837 18.9611C154.597 18.8808 154.235 18.8005 153.713 18.6801C153.232 18.5596 152.75 18.4392 152.348 18.3187C151.947 18.1983 151.545 18.0779 151.144 17.9574C149.739 17.5961 148.575 17.1947 147.611 16.8333C146.648 16.4319 145.684 15.9501 144.761 15.3078C143.797 14.7056 143.075 13.9027 142.553 13.0195C142.031 12.0961 141.75 11.0523 141.629 9.80777L146.447 9.9282C146.567 10.6508 146.848 11.2932 147.33 11.8552C147.812 12.4173 148.414 12.899 149.217 13.2603C150.02 13.6618 150.662 13.9428 151.184 14.1435C151.706 14.3443 152.429 14.5852 153.312 14.826C155.44 15.4282 156.684 15.7895 157.045 15.91C158.491 16.3516 159.735 16.7932 160.779 17.2348C161.823 17.6764 162.786 18.2385 163.79 18.9209C164.753 19.6034 165.516 20.4866 165.998 21.4903C166.48 22.5341 166.761 23.6983 166.761 25.0231C166.761 27.0305 166.118 28.7567 164.834 30.202C163.549 31.6473 162.024 32.6509 160.217 33.2531C158.41 33.8553 156.443 34.1765 154.356 34.1765C150.461 34.1765 147.33 33.3735 144.921 31.7276C142.553 30.1217 141.268 27.5122 141.107 23.9794ZM166.761 10.8917H161.662C161.502 8.9647 160.739 7.47929 159.374 6.3552C158.009 5.27125 156.323 4.66906 154.396 4.54862V0.734741C157.969 0.815033 160.899 1.69825 163.148 3.38439C165.356 5.03038 166.6 7.51944 166.761 10.8917Z" fill="#016938"/>
<path d="M128.662 34.0159H122.439L125.531 25.1837L128.662 34.0159Z" fill="#393C3D"/>
<path d="M0.234375 34.0158V9.76758L5.05191 16.753V34.0158H0.234375Z" fill="#070808"/>
<path d="M166.52 67.6583H0.154297V68.381H166.52V67.6583Z" fill="#393C3D"/>
</svg>
