<svg width="43" height="43" viewBox="0 0 43 43" fill="none" xmlns="http://www.w3.org/2000/svg">
<circle cx="21.1489" cy="21.1489" r="21.1489" fill="white"/>
<path d="M27.0572 10.5776L24.2672 10.5732C21.1328 10.5732 19.1072 12.6161 19.1072 15.778V18.1778H16.302C16.0596 18.1778 15.8633 18.3709 15.8633 18.6092V22.0862C15.8633 22.3245 16.0598 22.5174 16.302 22.5174H19.1072V31.2909C19.1072 31.5292 19.3035 31.7221 19.5459 31.7221H23.2058C23.4482 31.7221 23.6445 31.529 23.6445 31.2909V22.5174H26.9244C27.1668 22.5174 27.3631 22.3245 27.3631 22.0862L27.3645 18.6092C27.3645 18.4948 27.3181 18.3852 27.236 18.3043C27.1538 18.2233 27.0419 18.1778 26.9255 18.1778H23.6445V16.1435C23.6445 15.1657 23.8815 14.6693 25.1773 14.6693L27.0567 14.6687C27.2989 14.6687 27.4952 14.4755 27.4952 14.2374V11.0089C27.4952 10.771 27.2991 10.5781 27.0572 10.5776Z" fill="#0C6039"/>
</svg>
