<svg width="43" height="43" viewBox="0 0 43 43" fill="none" xmlns="http://www.w3.org/2000/svg">
<circle cx="21.1489" cy="21.1489" r="21.1489" fill="white"/>
<path d="M12.3807 17.2444H15.8703V28.5506H12.3807V17.2444ZM12.1016 13.6851C12.1016 13.1268 12.2954 12.6537 12.6832 12.266C13.0864 11.8628 13.5672 11.6611 14.1255 11.6611C14.6838 11.6611 15.1569 11.8628 15.5446 12.266C15.9478 12.6537 16.1495 13.1268 16.1495 13.6851C16.1495 14.2434 15.9478 14.7242 15.5446 15.1274C15.1569 15.5152 14.6838 15.709 14.1255 15.709C13.5672 15.709 13.0864 15.5152 12.6832 15.1274C12.2954 14.7242 12.1016 14.2434 12.1016 13.6851Z" fill="#0C6039"/>
<path d="M18.3773 17.2444H21.7273V18.7799H21.7738C21.8824 18.5627 22.0375 18.3456 22.2391 18.1285C22.4407 17.9113 22.6811 17.7175 22.9603 17.5469C23.2395 17.3763 23.5574 17.2367 23.9141 17.1281C24.2708 17.0196 24.6586 16.9653 25.0773 16.9653C25.9613 16.9653 26.6748 17.1049 27.2176 17.384C27.7604 17.6477 28.1791 18.0199 28.4738 18.5007C28.784 18.9815 28.9934 19.5476 29.1019 20.1989C29.2105 20.8503 29.2648 21.556 29.2648 22.3159V28.5506H25.7752V23.0139C25.7752 22.6882 25.7597 22.3547 25.7287 22.0135C25.7132 21.6568 25.6434 21.3311 25.5193 21.0364C25.4108 20.7418 25.2324 20.5014 24.9843 20.3153C24.7516 20.1292 24.4104 20.0361 23.9606 20.0361C23.5109 20.0361 23.1464 20.1214 22.8672 20.292C22.5881 20.4471 22.371 20.6642 22.2159 20.9434C22.0763 21.207 21.9832 21.5095 21.9367 21.8507C21.8902 22.1919 21.8669 22.5486 21.8669 22.9208V28.5506H18.3773V17.2444Z" fill="#0C6039"/>
</svg>
