<svg width="43" height="43" viewBox="0 0 43 43" fill="none" xmlns="http://www.w3.org/2000/svg">
<circle cx="21.1489" cy="21.1489" r="21.1489" fill="white"/>
<path d="M25.8867 10.5732C29.105 10.5733 31.7228 13.1921 31.7227 16.4102V25.8857C31.7227 29.1038 29.105 31.7226 25.8867 31.7227H16.4102C13.1922 31.7225 10.5742 29.1039 10.5742 25.8857V16.4102C10.5742 13.1922 13.1922 10.5734 16.4102 10.5732H25.8867ZM16.4102 12.4502C14.2268 12.4503 12.4502 14.2268 12.4502 16.4102V25.8867C12.4503 28.0701 14.2269 29.8467 16.4102 29.8467H25.8867C28.0701 29.8466 29.8465 28.0701 29.8467 25.8867V16.4102C29.8467 14.2268 28.0702 12.4503 25.8867 12.4502H16.4102ZM21.1484 15.6992C24.1533 15.6992 26.5985 18.1436 26.5986 21.1484C26.5986 24.1532 24.1534 26.5977 21.1484 26.5977C18.1437 26.5974 15.6992 24.1531 15.6992 21.1484C15.6993 18.1437 18.1438 15.6994 21.1484 15.6992ZM21.1484 17.5762C19.1783 17.5763 17.5752 19.1792 17.5752 21.1494C17.5754 23.1193 19.1786 24.7215 21.1484 24.7217C23.1184 24.7217 24.7215 23.1194 24.7217 21.1494C24.7217 19.1792 23.1187 17.5762 21.1484 17.5762ZM26.8262 14.1074C27.1888 14.1074 27.5446 14.2535 27.7998 14.5098C28.0562 14.7649 28.2021 15.1206 28.2021 15.4834C28.2021 15.8449 28.0562 16.2006 27.7998 16.457C27.5434 16.7121 27.1889 16.8594 26.8262 16.8594C26.4648 16.8593 26.1096 16.7121 25.8545 16.457C25.598 16.2006 25.4502 15.845 25.4502 15.4834C25.4502 15.1206 25.5979 14.7649 25.8545 14.5098C26.1097 14.2535 26.4649 14.1075 26.8262 14.1074Z" fill="#0C6039"/>
</svg>
