<svg width="29" height="29" viewBox="0 0 29 29" fill="none" xmlns="http://www.w3.org/2000/svg">
<circle cx="14.4346" cy="14.4346" r="14.4346" fill="white"/>
<path d="M14.0777 7.43457C14.3144 7.43457 14.5511 7.43457 14.7878 7.43457C15.0391 7.47467 15.294 7.50019 15.5417 7.55487C18.3531 8.18556 20.1339 10.9343 19.584 13.7669C19.391 14.7622 19.0268 15.6881 18.5388 16.5667C17.5774 18.3057 16.3174 19.8076 14.8861 21.1711C14.7842 21.2695 14.6567 21.3461 14.5438 21.4336C14.471 21.4336 14.3981 21.4336 14.3253 21.4336C14.2233 21.3606 14.1141 21.295 14.023 21.2075C12.9815 20.2342 12.0456 19.1697 11.2262 18.0031C10.4796 16.9386 9.84957 15.8157 9.47447 14.5617C9.08844 13.2784 9.05202 11.9915 9.57644 10.7375C10.2611 9.10424 11.4629 8.04703 13.1818 7.59498C13.4731 7.51842 13.779 7.48561 14.0777 7.43457ZM17.3443 12.7717C17.4135 11.1932 16.1498 9.84429 14.5256 9.76773C12.9487 9.69482 11.5976 10.9598 11.5175 12.5821C11.441 14.1716 12.7156 15.5277 14.3508 15.6006C15.9277 15.6699 17.2715 14.3976 17.3443 12.7717Z" fill="#0C6039"/>
</svg>
