<svg width="29" height="29" viewBox="0 0 29 29" fill="none" xmlns="http://www.w3.org/2000/svg">
<circle cx="14.4739" cy="14.4739" r="14.4739" fill="white"/>
<path d="M8.58984 11.2325C8.62355 11.1314 8.65418 11.0333 8.68482 10.9414C9.87357 12.121 11.0562 13.2913 12.2388 14.4648C11.0501 15.6413 9.86744 16.8116 8.68176 17.9881C8.65725 17.9177 8.62355 17.8165 8.58984 17.7154C8.58984 15.5524 8.58984 13.3924 8.58984 11.2325Z" fill="#0C6039"/>
<path d="M20.356 17.7137C20.3223 17.8148 20.2917 17.9128 20.261 18.0047C19.0723 16.8252 17.8897 15.6548 16.707 14.4814C17.8988 13.3018 19.0815 12.1314 20.2672 10.958C20.2917 11.0315 20.3254 11.1326 20.356 11.2307C20.356 13.3937 20.356 15.5537 20.356 17.7137Z" fill="#0C6039"/>
<path d="M9.21009 10.401C9.36328 10.3796 9.51647 10.3398 9.66966 10.3398C10.6685 10.3336 11.6673 10.3367 12.6691 10.3367C14.8628 10.3367 17.0565 10.3367 19.2501 10.3398C19.4094 10.3398 19.5718 10.3796 19.7311 10.398C19.7342 10.4102 19.7342 10.4256 19.7373 10.4378C19.7128 10.4654 19.6913 10.493 19.6668 10.5175C18.0399 12.1505 16.4131 13.7835 14.7862 15.4165C14.5901 15.6125 14.3573 15.6125 14.1612 15.4165C12.5312 13.7835 10.9044 12.1505 9.2775 10.5175C9.25299 10.493 9.23154 10.4684 9.20703 10.4439C9.20703 10.4286 9.21009 10.4164 9.21009 10.401Z" fill="#0C6039"/>
<path d="M19.7373 18.5413C19.5871 18.5627 19.4401 18.6026 19.29 18.6056C18.6895 18.6118 18.089 18.6087 17.4885 18.6087C14.8934 18.6087 12.2984 18.6087 9.70337 18.6087C9.53486 18.6087 9.36941 18.5934 9.20703 18.5107C10.3927 17.3342 11.5723 16.1638 12.758 14.9934C13.0552 15.2906 13.3707 15.6062 13.6894 15.9218C14.0356 16.2649 14.5227 16.3568 14.9455 16.1454C15.065 16.0841 15.1784 15.9953 15.2764 15.9034C15.5613 15.6276 15.8401 15.3427 16.122 15.0578C16.1496 15.0271 16.1802 14.9996 16.1955 14.9873C17.3812 16.1607 18.5608 17.3311 19.7403 18.4984C19.7373 18.5107 19.7373 18.526 19.7373 18.5413Z" fill="#0C6039"/>
</svg>
