<svg width="43" height="43" viewBox="0 0 43 43" fill="none" xmlns="http://www.w3.org/2000/svg">
<circle cx="21.1489" cy="21.1489" r="21.1489" fill="white"/>
<path d="M31.7231 14.6987C30.8911 15.0512 30.0589 15.2714 29.2272 15.3598C30.1666 14.8046 30.8019 14.0203 31.133 13.007C30.2737 13.5092 29.3569 13.8527 28.3818 14.0379C27.5229 13.1391 26.4674 12.6895 25.2147 12.6895C24.0161 12.6895 22.994 13.1058 22.1483 13.9386C21.303 14.7713 20.8803 15.778 20.8803 16.9588C20.8803 17.276 20.916 17.6022 20.9877 17.937C19.2163 17.8489 17.5545 17.4105 16.0023 16.6218C14.4501 15.833 13.1327 14.7822 12.0503 13.4692C11.6566 14.13 11.4597 14.8483 11.4597 15.6237C11.4597 16.3551 11.6342 17.0338 11.9832 17.6595C12.3321 18.285 12.8019 18.7917 13.3924 19.1795C12.6944 19.153 12.0414 18.9723 11.4331 18.6374V18.6903C11.4331 19.7214 11.7619 20.6267 12.4194 21.4068C13.0769 22.1868 13.9068 22.6778 14.9087 22.8806C14.5329 22.9774 14.1526 23.0259 13.768 23.0259C13.5174 23.0259 13.2445 23.0039 12.9494 22.9601C13.2267 23.8147 13.7367 24.5173 14.4791 25.0683C15.2217 25.6191 16.0626 25.903 17.002 25.921C15.4276 27.1369 13.6339 27.7448 11.621 27.7448C11.2362 27.7448 10.8874 27.7276 10.5742 27.6921C12.5872 28.9698 14.8058 29.6086 17.2303 29.6086C18.769 29.6086 20.2139 29.3687 21.5643 28.8883C22.9155 28.4082 24.0694 27.7648 25.0267 26.9583C25.9838 26.1521 26.8093 25.2246 27.5025 24.176C28.1958 23.1273 28.7123 22.0325 29.0525 20.8913C29.3923 19.7499 29.5624 18.6068 29.5624 17.461C29.5624 17.2142 29.5579 17.0292 29.5489 16.9058C30.399 16.2981 31.1237 15.5621 31.7231 14.6987Z" fill="#0C6039"/>
</svg>
