<svg width="43" height="43" viewBox="0 0 43 43" fill="none" xmlns="http://www.w3.org/2000/svg">
<circle cx="21.1489" cy="21.1489" r="21.1489" fill="white"/>
<path d="M21.1514 13.7461C23.9099 13.7461 27.0941 13.7826 28.3604 13.8701C29.6279 13.9428 30.2506 14.1339 30.8242 15.1729C31.4216 16.2105 31.7227 17.9977 31.7227 21.1455V21.1562C31.7227 24.2894 31.4213 26.0903 30.8252 27.1172C30.2516 28.156 29.6289 28.3442 28.3613 28.4316C27.0935 28.5056 23.9097 28.5508 21.1514 28.5508C18.3875 28.5508 15.2019 28.506 13.9355 28.4307C12.6707 28.3432 12.0477 28.155 11.4688 27.1162C10.8779 26.0894 10.5742 24.2882 10.5742 21.1553V21.1445C10.5742 17.9981 10.878 16.2105 11.4688 15.1729C12.0477 14.1326 12.6717 13.9432 13.9365 13.8691C15.2015 13.783 18.3875 13.7461 21.1514 13.7461ZM18.5049 25.1855L25.1143 21.1484L18.5049 17.1104V25.1855Z" fill="#0C6039"/>
</svg>
